<svg id="Capa_1" data-name="Capa 1" xmlns="http://www.w3.org/2000/svg" xmlns:xlink="http://www.w3.org/1999/xlink" width="1366" height="1455" viewBox="0 0 1366 1455">
  <defs>
    <style>
      .cls-1 {
        fill: none;
      }

      .cls-2 {
        mix-blend-mode: darken;
      }

      .cls-3, .cls-5 {
        fill: #b2bc74;
      }

      .cls-3, .cls-4 {
        opacity: 0.4;
      }

      .cls-6 {
        opacity: 0.56;
        fill: url(#Motivo_nuevo_6);
      }
    </style>
    <pattern id="Motivo_nuevo_6" data-name="Motivo nuevo 6" width="921.8" height="835.14" patternUnits="userSpaceOnUse" viewBox="0 0 921.8 835.14">
      <rect class="cls-1" width="921.8" height="835.14"/>
      <g class="cls-2">
        <path id="Icon_ionic-md-navigate" data-name="Icon ionic-md-navigate" class="cls-3" d="M17.81,645.74,23.32,686l2.07.51,9.16-13.11,15.87-2.06.5-2.07Z"/>
        <g>
          <g class="cls-4">
            <g>
              <polygon class="cls-5" points="511.68 363.95 511.79 364.06 511.96 363.88 511.68 363.95"/>
              <path class="cls-5" d="M518.26,384.22l2.83-7.9a.63.63,0,0,0-.11-.67l-11.16-11.06a.61.61,0,0,0-.64-.12l-7.31,2.45a1,1,0,0,0-.59.57l-8.92,24.09c-.15.41.3.63.62.31l13.54-13.67a.69.69,0,0,0,.11-.13,2.51,2.51,0,1,1,.93.92l-.09.08-13.54,13.66c-.28.29-.08.69.28.56l23.48-8.52A1,1,0,0,0,518.26,384.22Z"/>
              <polygon class="cls-5" points="522.56 374.74 522.61 374.62 522.53 374.7 522.56 374.74"/>
              <path class="cls-5" d="M523.33,373.89l6.57-6.63a.34.34,0,0,0,0-.49l-11.45-11.35a.35.35,0,0,0-.49,0L511.37,362a.35.35,0,0,0,0,.49l11.45,11.35A.35.35,0,0,0,523.33,373.89Z"/>
            </g>
            <path class="cls-5" d="M471.45,375.16a3.93,3.93,0,0,1,.79,4.66L487.07,393l1.64-1.84,5.16,4.59-1.64,1.84,14.83,13.21a3.94,3.94,0,1,1-.44,6.22l-.08-.08h0a3.94,3.94,0,0,1-.79-4.66L490.92,399.1,489.28,401l-5.16-4.6,1.64-1.84L470.94,381.3a4,4,0,0,1-4.82-.32l-.08-.08h0a3.94,3.94,0,0,1,5.41-5.74Z"/>
          </g>
          <g class="cls-4">
            <path class="cls-5" d="M649.13,228.22a2.44,2.44,0,0,0,.74-1.68,2.14,2.14,0,0,0-.73-1.65,2,2,0,0,0-1.65-.62,2.56,2.56,0,0,0-1.62.83L636,235.47a6.36,6.36,0,0,1-9.13.2,5.93,5.93,0,0,1-1.62-2.64,6,6,0,0,1-.08-3.18,6.56,6.56,0,0,1,1.75-3.06l9.91-10.37a2.22,2.22,0,0,0,.66-1.75,2.33,2.33,0,0,0-.71-1.64,2.52,2.52,0,0,0-1.79-.76,2.31,2.31,0,0,0-1.71.76l-9.91,10.36a11.81,11.81,0,0,0-3,5.19,10.12,10.12,0,0,0,.07,5.54,12.14,12.14,0,0,0,8.26,7.9,10.21,10.21,0,0,0,5.53-.19,11.82,11.82,0,0,0,5-3.24Z"/>
            <path class="cls-5" d="M668.53,243.43a2.4,2.4,0,0,0-2.2-.52l-11.19,1.84,1.36-11.51a2.33,2.33,0,0,0-.69-2.08,2.38,2.38,0,0,0-1.67-.64,2.28,2.28,0,0,0-2.36,2.1l-1.5,12.61-12.65,2.2a2.52,2.52,0,0,0-1.56.76,2.06,2.06,0,0,0-.54,1.48,2,2,0,0,0,.64,1.51,2.35,2.35,0,0,0,2.2.57l11.38-2-1.39,11.65a2.4,2.4,0,0,0,.69,2.09,2.59,2.59,0,0,0,1.59.63,2.08,2.08,0,0,0,1.77-.71,2.38,2.38,0,0,0,.68-1.39l1.51-12.78,12.64-2a2.3,2.3,0,0,0,1.36-.68,2.25,2.25,0,0,0,.57-1.54A2.05,2.05,0,0,0,668.53,243.43Z"/>
          </g>
          <path id="Icon_metro-earth" data-name="Icon metro-earth" class="cls-3" d="M821,88.11h0A22.14,22.14,0,1,1,798.83,66,22.14,22.14,0,0,1,821,88.11Zm-22.13,19.37a19.34,19.34,0,0,0,13.84-5.83,1.66,1.66,0,0,1,0-.22,32.52,32.52,0,0,0,.37-16.1h-.42a8.31,8.31,0,0,1-5.86-14.18c.17-.16.34-.32.52-.47a19.44,19.44,0,0,0-14-1.15v3.35a1.4,1.4,0,0,1-.41,1l-5.53,5.53a1.38,1.38,0,0,1-1,.4h-5a19.38,19.38,0,0,0,6.43,24.2V95.88L783,93.5a1.41,1.41,0,0,1-.76-1.24V84a1.38,1.38,0,0,1,1.38-1.39h5.54a1.4,1.4,0,0,1,1,.41s5.21,5.13,10.09,5.13h0a1.38,1.38,0,0,1,1.38,1.38v4.15a1.35,1.35,0,0,1-.35.92L791.17,105.9a19.42,19.42,0,0,0,7.66,1.58Z"/>
          <path id="Icon_simple-mail-dot-ru" data-name="Icon simple-mail-dot-ru" class="cls-3" d="M474.31,92a12.91,12.91,0,0,0,12.57,12.57,12.44,12.44,0,0,0,8.82-3.67l0,1.25c0,3.82,4.95,6.37,8.3,3.75,7.4-5.77,7.84-20.61.26-28.53a23.3,23.3,0,0,0-28.42-3.65c-11.93,7.1-12.17,20.8-7.67,28.59,6.66,11.54,20.92,11.76,26,9.58,3.39-1.44,1.88-5.86-1.38-4.54-6.44,2.6-17.29,0-21.08-8.75a17,17,0,0,1,5.69-20.41A18.94,18.94,0,0,1,500,80c7.91,6.92,4.55,18.86,1.74,21.75a1.16,1.16,0,0,1-1,.3,1.13,1.13,0,0,1-.94-1.3V83.21a2,2,0,0,0-2-2h-.36a1.83,1.83,0,0,0-1.72,2h0a12.75,12.75,0,0,0-8.9-3.84A13,13,0,0,0,474.31,92Zm21,.5a8.25,8.25,0,0,1-8.47,7.95c-4.46,0-7.86-3.2-7.86-8.27,0-4.52,2.81-8.51,7.88-8.51h.35a8,8,0,0,1,8.09,7.84Z"/>
          <path id="Icon_awesome-star" data-name="Icon awesome-star" class="cls-3" d="M646,312.49l2.41,4.9,5.41.79a1.19,1.19,0,0,1,1,1.34,1.18,1.18,0,0,1-.35.68L650.56,324l.93,5.38a1.19,1.19,0,0,1-1,1.36,1.15,1.15,0,0,1-.75-.12l-4.83-2.54-4.84,2.54a1.17,1.17,0,0,1-1.59-.5,1.19,1.19,0,0,1-.12-.74l.92-5.38-3.91-3.81a1.2,1.2,0,0,1,0-1.68,1.23,1.23,0,0,1,.68-.34l5.4-.79,2.42-4.9a1.18,1.18,0,0,1,1.58-.53A1.16,1.16,0,0,1,646,312.49Z"/>
          <path id="Icon_awesome-star-2" data-name="Icon awesome-star" class="cls-3" d="M775.05,314.67l4.06,3.65,5.31-1.27a1.19,1.19,0,0,1,1.43.87,1.17,1.17,0,0,1-.07.76l-2.21,5,2.85,4.65A1.18,1.18,0,0,1,786,330a1.27,1.27,0,0,1-.74.17l-5.43-.57-3.54,4.16a1.19,1.19,0,0,1-2.06-.53l-1.14-5.33-5-2.09a1.17,1.17,0,0,1-.64-1.54,1.11,1.11,0,0,1,.5-.57l4.72-2.74.42-5.45a1.17,1.17,0,0,1,1.28-1.08A1.19,1.19,0,0,1,775.05,314.67Z"/>
          <path id="Icon_awesome-star-3" data-name="Icon awesome-star" class="cls-3" d="M770.68,142.43l2.76,4.71,5.45.39a1.17,1.17,0,0,1,.8,2l-3.62,4.09,1.32,5.3a1.18,1.18,0,0,1-.87,1.43,1.21,1.21,0,0,1-.75-.06l-5-2.18L766.13,161a1.17,1.17,0,0,1-1.63-.38,1.12,1.12,0,0,1-.17-.73l.52-5.44-4.17-3.51a1.19,1.19,0,0,1-.15-1.67,1.28,1.28,0,0,1,.65-.39l5.33-1.18,2-5.06a1.18,1.18,0,0,1,1.54-.65A1.21,1.21,0,0,1,770.68,142.43Z"/>
          <path id="Icon_awesome-star-4" data-name="Icon awesome-star" class="cls-3" d="M505.93,306.68l1.43,5.27,5.15,1.81a1.18,1.18,0,0,1,.72,1.51,1.15,1.15,0,0,1-.46.6l-4.57,3-.13,5.46a1.2,1.2,0,0,1-1.21,1.16,1.21,1.21,0,0,1-.71-.26l-4.26-3.43-5.23,1.57a1.19,1.19,0,0,1-1.47-.8,1.2,1.2,0,0,1,0-.75l1.94-5.11-3.11-4.48a1.19,1.19,0,0,1,1-1.86l5.46.26,3.31-4.34a1.18,1.18,0,0,1,1.66-.22A1.24,1.24,0,0,1,505.93,306.68Z"/>
          <path id="Icon_awesome-star-5" data-name="Icon awesome-star" class="cls-3" d="M500.21,142.65l2.41,4.89,5.41.79a1.2,1.2,0,0,1,1,1.35,1.18,1.18,0,0,1-.35.67l-3.91,3.81.93,5.38a1.19,1.19,0,0,1-1,1.37,1.21,1.21,0,0,1-.75-.12l-4.83-2.54-4.84,2.54a1.19,1.19,0,0,1-1.71-1.25l.92-5.38-3.91-3.81a1.19,1.19,0,0,1,0-1.67,1.18,1.18,0,0,1,.68-.35l5.4-.79,2.42-4.89a1.18,1.18,0,0,1,1.58-.54A1.23,1.23,0,0,1,500.21,142.65Z"/>
          <path id="Icon_awesome-star-6" data-name="Icon awesome-star" class="cls-3" d="M643.62,135.74l2.42,4.89,5.4.79a1.18,1.18,0,0,1,1,1.34,1.23,1.23,0,0,1-.34.68l-3.91,3.81.92,5.38a1.18,1.18,0,0,1-1,1.36,1.12,1.12,0,0,1-.74-.11l-4.84-2.55-4.83,2.55a1.19,1.19,0,0,1-1.72-1.25l.93-5.38L633,143.44a1.19,1.19,0,0,1,.65-2l5.41-.79,2.41-4.89a1.19,1.19,0,0,1,1.59-.54A1.16,1.16,0,0,1,643.62,135.74Z"/>
          <path id="Icon_material-data-usage" data-name="Icon material-data-usage" class="cls-3" d="M777.57,393.62a21.87,21.87,0,0,1,1.95-9l5.75,3.39a15.88,15.88,0,0,0-1.06,5.62,15.46,15.46,0,0,0,13.27,15.3v6.71A22.15,22.15,0,0,1,777.57,393.62Zm10.07-9.68-5.75-3.39a22.12,22.12,0,1,1,20,35.08v-6.71a15.47,15.47,0,1,0-14.26-25Z"/>
          <path id="Icon_awesome-star-7" data-name="Icon awesome-star" class="cls-3" d="M640.1,39.78,644.78,37l5,2.26a1.19,1.19,0,0,0,1.57-.59,1.17,1.17,0,0,0,.07-.76l-1.23-5.31,3.68-4a1.18,1.18,0,0,0-.07-1.67,1.15,1.15,0,0,0-.7-.31l-5.44-.47-2.69-4.75a1.19,1.19,0,0,0-1.62-.44,1.23,1.23,0,0,0-.5.56l-2.13,5-5.34,1.09a1.18,1.18,0,0,0-.54,2.06l4.12,3.58-.61,5.42a1.18,1.18,0,0,0,1,1.31A1.19,1.19,0,0,0,640.1,39.78Z"/>
          <path id="Icon_awesome-star-8" data-name="Icon awesome-star" class="cls-3" d="M418.93,19.05l4.68-2.82,5,2.25a1.18,1.18,0,0,0,1.57-.59,1.14,1.14,0,0,0,.07-.75L429,11.82l3.68-4a1.18,1.18,0,0,0-.07-1.67,1.2,1.2,0,0,0-.7-.3l-5.44-.48L423.77.6a1.18,1.18,0,0,0-1.62-.44,1.14,1.14,0,0,0-.5.56l-2.13,5-5.34,1.09a1.19,1.19,0,0,0-.93,1.4,1.22,1.22,0,0,0,.39.65l4.12,3.58-.61,5.43a1.18,1.18,0,0,0,1.78,1.15Z"/>
          <g class="cls-4">
            <path class="cls-5" d="M483.28,243.78a2.14,2.14,0,0,0-.61-.86,3.45,3.45,0,0,0-2.15-.78,2.21,2.21,0,0,0-1.9.64,2.4,2.4,0,0,0-.47.9,7.13,7.13,0,0,0-.23,1.29l-2.26,17.78a2.31,2.31,0,0,0,.24,1.3,3.8,3.8,0,0,0,.88,1.12,3.49,3.49,0,0,0,1.21.67,2.62,2.62,0,0,0,1.36.07l17.39-4.79c.49-.14.95-.29,1.37-.43a2.07,2.07,0,0,0,1-.6,2,2,0,0,0,.26-1.8,3.49,3.49,0,0,0-1.21-2,2.9,2.9,0,0,0-1-.56,2,2,0,0,0-1.22,0l-14.26,3.81,1.8-14.57A2.38,2.38,0,0,0,483.28,243.78Z"/>
            <path class="cls-5" d="M481,220.5a1.85,1.85,0,0,0-.27,1.2,2.89,2.89,0,0,0,.49,1.37l26.57,39.57a3,3,0,0,0,.91.92,2.41,2.41,0,0,0,2,.35,2.49,2.49,0,0,0,1.5-1,1.9,1.9,0,0,0,.29-1.22,3.13,3.13,0,0,0-.51-1.35l-26.59-39.53a3.07,3.07,0,0,0-.91-.92,2.61,2.61,0,0,0-3.52.56Z"/>
            <path class="cls-5" d="M515.31,217.8a2.29,2.29,0,0,0-1.32,0l-17.39,4.79-1.38.43a2.09,2.09,0,0,0-1,.6,2.12,2.12,0,0,0-.25,1.79,3.45,3.45,0,0,0,1.19,2,3.14,3.14,0,0,0,1,.57,2.08,2.08,0,0,0,1.21,0l14.27-3.81-1.8,14.57a2.39,2.39,0,0,0,.14,1.12,2.2,2.2,0,0,0,.64.88,3.33,3.33,0,0,0,2.14.78,2.23,2.23,0,0,0,1.91-.64,2.13,2.13,0,0,0,.46-.94c.09-.37.16-.78.24-1.25l2.26-17.78a2.24,2.24,0,0,0-.25-1.3,3.61,3.61,0,0,0-.88-1.12A3.55,3.55,0,0,0,515.31,217.8Z"/>
          </g>
          <path id="Icon_awesome-laptop-code" data-name="Icon awesome-laptop-code" class="cls-3" d="M785.82,241.87l-6.29-1.27h0a1.25,1.25,0,0,1-1-1.47l1.27-6.29h0a1.25,1.25,0,0,1,1.47-1l1.23.25h0a1.23,1.23,0,0,1,1,1.46l-.78,3.86,3.86.77h0a1.24,1.24,0,0,1,1,1.47l-.24,1.23h0a1.25,1.25,0,0,1-1.47,1Zm5.75-4.86h0a1.25,1.25,0,0,1-1-1.47l.78-3.85-3.84-.76h0a1.26,1.26,0,0,1-1-1.47l.25-1.23h0a1.24,1.24,0,0,1,1.47-1l6.29,1.27h0a1.24,1.24,0,0,1,1,1.47l-1.27,6.29h0a1.23,1.23,0,0,1-1.46,1l-1.23-.25Zm26.55-.66.69,1a5,5,0,0,1-1.39,6.9l-33.2,22a5,5,0,0,1-6.91-1.39l-.69-1a1.25,1.25,0,0,1,.35-1.72l15.52-10.31a2.63,2.63,0,0,0,3.5.67l3.94-2.62a.41.41,0,0,0,.11-.07,2.46,2.46,0,0,0,.64-3.41L816.4,236A1.24,1.24,0,0,1,818.12,236.35Zm-6.21-.36-33.2,22-14.47-21.78a3.76,3.76,0,0,1,1-5.18l27-17.91a3.74,3.74,0,0,1,5.18,1.05ZM794,218l-24.9,16.53,11,16.6L805,234.6Z"/>
        </g>
        <g class="cls-4">
          <g>
            <polygon class="cls-5" points="310.17 122.13 310.06 122.02 309.89 122.19 310.17 122.13"/>
            <path class="cls-5" d="M303.59,101.86l-2.83,7.9a.62.62,0,0,0,.11.66L312,121.49a.63.63,0,0,0,.64.11l7.31-2.45a1,1,0,0,0,.59-.57l8.92-24.09c.15-.4-.3-.62-.62-.3l-13.54,13.66-.11.13a2.51,2.51,0,1,1-.93-.92l.09-.08,13.54-13.65c.28-.29.09-.7-.28-.57l-23.48,8.52A1,1,0,0,0,303.59,101.86Z"/>
            <polygon class="cls-5" points="299.29 111.34 299.25 111.45 299.32 111.38 299.29 111.34"/>
            <path class="cls-5" d="M298.52,112.19,292,118.82a.34.34,0,0,0,0,.49l11.45,11.35a.35.35,0,0,0,.49,0l6.57-6.63a.35.35,0,0,0,0-.49L299,112.2A.35.35,0,0,0,298.52,112.19Z"/>
          </g>
          <path class="cls-5" d="M350.4,110.91a3.93,3.93,0,0,1-.79-4.66L334.78,93l-1.64,1.84L328,90.28l1.64-1.84-14.83-13.2a3.94,3.94,0,1,1,.44-6.22l.08.07h0a4,4,0,0,1,.79,4.67L330.93,87l1.64-1.84,5.16,4.59-1.64,1.84,14.82,13.21a4,4,0,0,1,4.82.33l.08.07h0a3.94,3.94,0,0,1-5.41,5.74Z"/>
        </g>
        <g class="cls-4">
          <path class="cls-5" d="M174,237.39a2.47,2.47,0,0,0-.59-1.74,2.11,2.11,0,0,0-1.64-.73,2,2,0,0,0-1.64.64,2.51,2.51,0,0,0-.64,1.71l-.39,14.34a6.23,6.23,0,0,1-3.44,5.57,6.49,6.49,0,0,1-3.19.71,6.07,6.07,0,0,1-5.17-3.17,6.71,6.71,0,0,1-.76-3.45l.39-14.34a2.26,2.26,0,0,0-.69-1.74,2.31,2.31,0,0,0-1.62-.74,2.51,2.51,0,0,0-1.84.65,2.28,2.28,0,0,0-.76,1.7l-.39,14.34a11.83,11.83,0,0,0,1.25,5.86,10.18,10.18,0,0,0,3.77,4.06,11.25,11.25,0,0,0,5.69,1.58,11.1,11.1,0,0,0,5.74-1.27,10.22,10.22,0,0,0,4-3.86,11.82,11.82,0,0,0,1.56-5.78Z"/>
          <path class="cls-5" d="M198.54,235.64a2.37,2.37,0,0,0-2,1.09l-7.07,8.88-6.71-9.45a2.38,2.38,0,0,0-1.91-1.08,2.43,2.43,0,0,0-1.66.65,2.23,2.23,0,0,0-.82,1.7,2.17,2.17,0,0,0,.47,1.44l7.36,10.35-7.91,10.13a2.6,2.6,0,0,0-.64,1.61,2.06,2.06,0,0,0,.6,1.46,2,2,0,0,0,1.49.69,2.35,2.35,0,0,0,2-1.05l7.1-9.11,6.8,9.56a2.4,2.4,0,0,0,1.91,1.09,2.56,2.56,0,0,0,1.6-.6,2.1,2.1,0,0,0,.84-1.72,2.37,2.37,0,0,0-.44-1.47l-7.45-10.5,8-10a2.32,2.32,0,0,0,.55-1.41,2.25,2.25,0,0,0-.61-1.53A2.1,2.1,0,0,0,198.54,235.64Z"/>
        </g>
        <path id="Icon_metro-earth-2" data-name="Icon metro-earth" class="cls-3" d="M338.9,251.1h0A22.14,22.14,0,1,1,316.76,229,22.14,22.14,0,0,1,338.9,251.1Zm-22.14,19.37a19.34,19.34,0,0,0,13.84-5.83,1.7,1.7,0,0,1,0-.22,32.52,32.52,0,0,0,.36-16.1h-.41a8.31,8.31,0,0,1-5.87-14.18l.53-.47a19.47,19.47,0,0,0-14-1.15v3.35a1.39,1.39,0,0,1-.4,1l-5.54,5.53a1.37,1.37,0,0,1-1,.4h-5.06a19.38,19.38,0,0,0,6.44,24.2v-8.12l-4.77-2.38a1.4,1.4,0,0,1-.77-1.24V247a1.39,1.39,0,0,1,1.39-1.39h5.53a1.39,1.39,0,0,1,1,.41c0,.05,5.21,5.13,10.09,5.13h0a1.38,1.38,0,0,1,1.39,1.38v4.15a1.4,1.4,0,0,1-.35.92L309.1,268.89a19.38,19.38,0,0,0,7.66,1.58Z"/>
        <path id="Icon_simple-mail-dot-ru-2" data-name="Icon simple-mail-dot-ru" class="cls-3" d="M320.87,394.63a12.91,12.91,0,0,0,12.57,12.57,12.44,12.44,0,0,0,8.82-3.67l0,1.25c0,3.82,4.95,6.37,8.3,3.75,7.4-5.77,7.85-20.6.26-28.53a23.29,23.29,0,0,0-28.42-3.65c-11.93,7.1-12.17,20.81-7.67,28.6,6.66,11.54,20.92,11.75,26,9.57,3.39-1.44,1.88-5.86-1.38-4.54-6.44,2.6-17.29,0-21.08-8.75A17,17,0,0,1,324,380.82a18.94,18.94,0,0,1,22.53,1.76c7.91,6.92,4.55,18.87,1.74,21.75a1.1,1.1,0,0,1-1,.3,1.12,1.12,0,0,1-.93-1.3v-17.5a2,2,0,0,0-2-2h-.36a1.84,1.84,0,0,0-1.72,2h0a12.7,12.7,0,0,0-8.9-3.83A13,13,0,0,0,320.87,394.63Zm21,.51a8.24,8.24,0,0,1-8.47,7.94c-4.46,0-7.86-3.2-7.86-8.27,0-4.52,2.81-8.5,7.88-8.5h.35a8,8,0,0,1,8.09,7.85Z"/>
        <path id="Icon_awesome-star-9" data-name="Icon awesome-star" class="cls-3" d="M175.85,173.58l-2.41-4.9-5.41-.79a1.19,1.19,0,0,1-1-1.34,1.15,1.15,0,0,1,.35-.67l3.91-3.81-.93-5.38a1.19,1.19,0,0,1,1-1.37,1.21,1.21,0,0,1,.75.12l4.83,2.54,4.84-2.54a1.18,1.18,0,0,1,1.59.5,1.21,1.21,0,0,1,.12.75l-.92,5.38,3.91,3.81a1.19,1.19,0,0,1,0,1.67,1.11,1.11,0,0,1-.68.34l-5.4.79-2.42,4.9a1.18,1.18,0,0,1-1.58.54A1.23,1.23,0,0,1,175.85,173.58Z"/>
        <path id="Icon_awesome-star-10" data-name="Icon awesome-star" class="cls-3" d="M46.8,171.4l-4.06-3.65L37.43,169a1.19,1.19,0,0,1-1.43-.88,1.17,1.17,0,0,1,.07-.76l2.21-5-2.85-4.66a1.17,1.17,0,0,1,.39-1.62,1.13,1.13,0,0,1,.74-.17l5.43.56,3.54-4.15a1.19,1.19,0,0,1,1.67-.13,1.22,1.22,0,0,1,.39.65l1.14,5.34,5,2.08a1.18,1.18,0,0,1,.64,1.55,1.14,1.14,0,0,1-.49.57l-4.73,2.74-.42,5.44a1.18,1.18,0,0,1-2,.79Z"/>
        <path id="Icon_awesome-star-11" data-name="Icon awesome-star" class="cls-3" d="M51.17,343.64l-2.76-4.7L43,338.55a1.2,1.2,0,0,1-1.1-1.27,1.23,1.23,0,0,1,.3-.7l3.62-4.08-1.32-5.3a1.18,1.18,0,0,1,.87-1.43,1.14,1.14,0,0,1,.75.06l5,2.18,4.63-2.89a1.19,1.19,0,0,1,1.63.38,1.13,1.13,0,0,1,.17.74L57,331.67l4.17,3.51a1.18,1.18,0,0,1,.15,1.67,1.16,1.16,0,0,1-.65.39l-5.33,1.19-2.05,5.06a1.19,1.19,0,0,1-1.54.65A1.22,1.22,0,0,1,51.17,343.64Z"/>
        <path id="Icon_awesome-star-12" data-name="Icon awesome-star" class="cls-3" d="M315.92,179.39l-1.43-5.26-5.15-1.82a1.17,1.17,0,0,1-.72-1.51,1.14,1.14,0,0,1,.47-.59l4.56-3,.13-5.46a1.18,1.18,0,0,1,1.21-1.15,1.21,1.21,0,0,1,.71.26l4.26,3.42,5.23-1.56a1.18,1.18,0,0,1,1.47.8,1.2,1.2,0,0,1,0,.75l-1.94,5.1,3.11,4.49a1.17,1.17,0,0,1-1,1.85l-5.46-.26L318,179.8a1.18,1.18,0,0,1-1.66.22A1.2,1.2,0,0,1,315.92,179.39Z"/>
        <path id="Icon_awesome-star-13" data-name="Icon awesome-star" class="cls-3" d="M182.91,28l-4.68-2.81-5,2.25a1.18,1.18,0,0,1-1.57-.59,1.21,1.21,0,0,1-.07-.75l1.23-5.32-3.68-4a1.18,1.18,0,0,1,.07-1.67,1.24,1.24,0,0,1,.7-.31l5.44-.47,2.69-4.75a1.18,1.18,0,0,1,2.12.13l2.13,5,5.34,1.1a1.18,1.18,0,0,1,.93,1.39,1.21,1.21,0,0,1-.39.66l-4.12,3.58.62,5.43a1.18,1.18,0,0,1-1,1.3A1.13,1.13,0,0,1,182.91,28Z"/>
        <path id="Icon_awesome-star-14" data-name="Icon awesome-star" class="cls-3" d="M321.64,343.43l-2.41-4.9-5.41-.79a1.18,1.18,0,0,1-.65-2l3.91-3.81-.93-5.38a1.19,1.19,0,0,1,1-1.36,1.21,1.21,0,0,1,.75.12l4.83,2.54,4.84-2.54a1.18,1.18,0,0,1,1.59.5,1.19,1.19,0,0,1,.12.74l-.92,5.38,3.91,3.81a1.2,1.2,0,0,1,0,1.68,1.23,1.23,0,0,1-.68.34l-5.4.79-2.42,4.9a1.18,1.18,0,0,1-1.58.53A1.16,1.16,0,0,1,321.64,343.43Z"/>
        <path id="Icon_awesome-star-15" data-name="Icon awesome-star" class="cls-3" d="M425.31,255.3l-2.41-4.89-5.4-.79a1.18,1.18,0,0,1-1-1.34,1.23,1.23,0,0,1,.34-.68l3.91-3.81-.92-5.38a1.18,1.18,0,0,1,1-1.36,1.07,1.07,0,0,1,.74.12l4.84,2.54,4.83-2.54a1.18,1.18,0,0,1,1.6.5,1.12,1.12,0,0,1,.11.74l-.92,5.38,3.91,3.81a1.19,1.19,0,0,1-.65,2l-5.41.79-2.41,4.89a1.19,1.19,0,0,1-1.59.54A1.23,1.23,0,0,1,425.31,255.3Z"/>
        <path id="Icon_awesome-star-16" data-name="Icon awesome-star" class="cls-3" d="M178.23,350.34l-2.42-4.9-5.4-.79a1.17,1.17,0,0,1-1-1.34,1.26,1.26,0,0,1,.34-.68l3.91-3.8-.92-5.38a1.18,1.18,0,0,1,1-1.37,1.22,1.22,0,0,1,.75.12l4.83,2.54,4.83-2.54a1.19,1.19,0,0,1,1.6.5,1.21,1.21,0,0,1,.12.75l-.93,5.38,3.91,3.8a1.19,1.19,0,0,1,0,1.68,1.17,1.17,0,0,1-.67.34l-5.41.79-2.41,4.9a1.19,1.19,0,0,1-1.59.53A1.14,1.14,0,0,1,178.23,350.34Z"/>
        <path id="Icon_material-data-usage-2" data-name="Icon material-data-usage" class="cls-3" d="M44.28,92.46a21.9,21.9,0,0,1-2,9l-5.75-3.4a15.82,15.82,0,0,0,1.06-5.61A15.48,15.48,0,0,0,24.37,77.15v-6.7A22.14,22.14,0,0,1,44.28,92.46Zm-10.07,9.68L40,105.53A22.12,22.12,0,1,1,20,70.45v6.7a15.47,15.47,0,1,0,14.26,25Z"/>
        <path id="Icon_awesome-star-17" data-name="Icon awesome-star" class="cls-3" d="M181.75,446.29l-4.68,2.82-5-2.25a1.18,1.18,0,0,0-1.57.59,1.14,1.14,0,0,0-.07.75l1.23,5.32-3.68,4a1.18,1.18,0,0,0,.07,1.67,1.2,1.2,0,0,0,.7.3l5.44.48,2.69,4.74a1.18,1.18,0,0,0,1.62.44,1.14,1.14,0,0,0,.5-.56l2.13-5,5.34-1.09a1.19,1.19,0,0,0,.93-1.4,1.22,1.22,0,0,0-.39-.65l-4.12-3.58.61-5.43a1.18,1.18,0,0,0-1.78-1.15Z"/>
        <path id="Icon_awesome-star-18" data-name="Icon awesome-star" class="cls-3" d="M905.74,237.22,901.06,240l-5-2.26a1.19,1.19,0,0,0-1.57.59,1.24,1.24,0,0,0-.08.76l1.24,5.31-3.69,4a1.18,1.18,0,0,0,.08,1.67,1.15,1.15,0,0,0,.69.31l5.44.47,2.7,4.75a1.19,1.19,0,0,0,1.62.44,1.29,1.29,0,0,0,.5-.56l2.12-5,5.35-1.09a1.19,1.19,0,0,0,.92-1.4,1.14,1.14,0,0,0-.38-.66l-4.12-3.58.61-5.42a1.18,1.18,0,0,0-1.78-1.15Z"/>
        <path id="Icon_awesome-star-19" data-name="Icon awesome-star" class="cls-3" d="M427.11,439.38l-4.68,2.82-5-2.25a1.18,1.18,0,0,0-1.57.59,1.2,1.2,0,0,0-.07.75l1.23,5.32-3.68,4a1.18,1.18,0,0,0,.07,1.67,1.23,1.23,0,0,0,.7.3l5.44.47,2.69,4.75a1.19,1.19,0,0,0,2.12-.12l2.13-5,5.34-1.09a1.19,1.19,0,0,0,.93-1.4,1.22,1.22,0,0,0-.39-.65L428.28,446l.62-5.42a1.19,1.19,0,0,0-1.79-1.15Z"/>
        <path id="Icon_awesome-star-20" data-name="Icon awesome-star" class="cls-3" d="M916.1,449.75l-4.67,2.82-5-2.26a1.18,1.18,0,0,0-1.56.59,1.17,1.17,0,0,0-.08.76L906,457l-3.68,4a1.18,1.18,0,0,0,.08,1.67,1.12,1.12,0,0,0,.69.31l5.44.47,2.7,4.75a1.18,1.18,0,0,0,2.11-.12l2.13-5,5.35-1.09a1.19,1.19,0,0,0,.54-2.06l-4.12-3.58.61-5.42a1.19,1.19,0,0,0-1-1.31A1.22,1.22,0,0,0,916.1,449.75Z"/>
        <path id="Icon_awesome-star-21" data-name="Icon awesome-star" class="cls-3" d="M916.1,641.55l-4.67,2.81-5-2.25a1.17,1.17,0,0,0-1.56.59,1.15,1.15,0,0,0-.08.75l1.23,5.32-3.68,4a1.19,1.19,0,0,0,.77,2l5.44.47,2.7,4.75a1.19,1.19,0,0,0,1.61.44,1.16,1.16,0,0,0,.5-.57l2.13-5,5.35-1.1a1.18,1.18,0,0,0,.92-1.39,1.19,1.19,0,0,0-.38-.66l-4.12-3.58.61-5.43a1.18,1.18,0,0,0-1-1.3A1.15,1.15,0,0,0,916.1,641.55Z"/>
        <g class="cls-4">
          <path class="cls-5" d="M21.51,394.35a2.25,2.25,0,0,1-.61.86,3.45,3.45,0,0,1-2.15.78,2.23,2.23,0,0,1-1.91-.64,2.36,2.36,0,0,1-.46-.91,6.13,6.13,0,0,1-.23-1.28l-2.26-17.78a2.31,2.31,0,0,1,.24-1.3,3.56,3.56,0,0,1,2.08-1.79,2.63,2.63,0,0,1,1.36-.07L35,377c.49.14,1,.29,1.37.43a2.18,2.18,0,0,1,1,.6,2.1,2.1,0,0,1,.26,1.8,3.59,3.59,0,0,1-1.21,2,2.85,2.85,0,0,1-1,.56,2,2,0,0,1-1.21,0l-14.27-3.81,1.81,14.57A2.51,2.51,0,0,1,21.51,394.35Z"/>
          <path class="cls-5" d="M19.26,417.63a1.92,1.92,0,0,1-.28-1.2,3,3,0,0,1,.5-1.37L46,375.49a3.23,3.23,0,0,1,.91-.93,2.46,2.46,0,0,1,2-.34,2.52,2.52,0,0,1,1.5.95,1.84,1.84,0,0,1,.28,1.22,2.82,2.82,0,0,1-.51,1.34L23.69,417.27a3.1,3.1,0,0,1-.92.92,2.59,2.59,0,0,1-3.51-.56Z"/>
          <path class="cls-5" d="M53.54,420.33a2.29,2.29,0,0,1-1.32,0l-17.4-4.79-1.37-.43a2.17,2.17,0,0,1-1-.6,2.08,2.08,0,0,1-.25-1.79,3.45,3.45,0,0,1,1.19-2.05,3,3,0,0,1,1-.57,2.08,2.08,0,0,1,1.21,0L49.91,414l-1.8-14.57a2.59,2.59,0,0,1,.15-1.13,2.21,2.21,0,0,1,.63-.87,3.42,3.42,0,0,1,2.15-.79,2.23,2.23,0,0,1,1.9.65,2,2,0,0,1,.46.93c.09.37.17.79.24,1.25l2.26,17.79a2.31,2.31,0,0,1-.24,1.3,3.76,3.76,0,0,1-.88,1.12A3.64,3.64,0,0,1,53.54,420.33Z"/>
        </g>
        <g>
          <g class="cls-4">
            <g>
              <polygon class="cls-5" points="518.59 778.64 518.7 778.75 518.87 778.58 518.59 778.64"/>
              <path class="cls-5" d="M525.17,798.91,528,791a.62.62,0,0,0-.11-.66l-11.16-11.07a.63.63,0,0,0-.64-.11l-7.31,2.45a1,1,0,0,0-.59.57l-8.92,24.09c-.15.4.3.62.62.3l13.54-13.66a.67.67,0,0,0,.11-.14,2.5,2.5,0,1,1,.93.93l-.09.08-13.53,13.65c-.29.29-.09.7.27.57l23.48-8.52A1,1,0,0,0,525.17,798.91Z"/>
              <polygon class="cls-5" points="529.48 789.43 529.52 789.32 529.44 789.39 529.48 789.43"/>
              <path class="cls-5" d="M530.24,788.58l6.57-6.63a.35.35,0,0,0,0-.49l-11.45-11.35a.36.36,0,0,0-.5,0l-6.57,6.63a.35.35,0,0,0,0,.49l11.45,11.35A.35.35,0,0,0,530.24,788.58Z"/>
            </g>
            <path class="cls-5" d="M478.36,789.86a3.93,3.93,0,0,1,.79,4.66L494,807.73l1.64-1.84,5.15,4.59-1.64,1.85L514,825.53a3.94,3.94,0,1,1-.44,6.22l-.08-.08h0a4,4,0,0,1-.79-4.66L497.83,813.8l-1.64,1.84L491,811.05l1.64-1.84L477.85,796a4,4,0,0,1-4.82-.33l-.08-.07h0a3.94,3.94,0,0,1,5.41-5.74Z"/>
          </g>
          <g class="cls-4">
            <path class="cls-5" d="M652.07,663.88a2.45,2.45,0,0,0,.13,1.83,2.13,2.13,0,0,0,1.4,1.12,2.05,2.05,0,0,0,1.76-.21,2.57,2.57,0,0,0,1-1.49l4-13.78a6.29,6.29,0,0,1,1.83-3,6.37,6.37,0,0,1,2.9-1.5,6.71,6.71,0,0,1,3.27.12,6.08,6.08,0,0,1,4.2,4.37,6.58,6.58,0,0,1-.13,3.53l-4,13.78a2.29,2.29,0,0,0,.23,1.86,2.35,2.35,0,0,0,1.39,1.12,2.53,2.53,0,0,0,1.94-.16,2.28,2.28,0,0,0,1.16-1.46l4-13.78a11.82,11.82,0,0,0,.26-6,10.18,10.18,0,0,0-2.63-4.88,11.28,11.28,0,0,0-5.11-3,11.13,11.13,0,0,0-5.87-.21,10.17,10.17,0,0,0-4.81,2.74,11.82,11.82,0,0,0-3,5.2Z"/>
            <path class="cls-5" d="M627.83,659.4a2.38,2.38,0,0,0,2.19-.56l9.06-6.82,4.13,10.83a2.37,2.37,0,0,0,1.58,1.52,2.34,2.34,0,0,0,1.77-.21,2.22,2.22,0,0,0,1.22-1.44,2.19,2.19,0,0,0-.1-1.51l-4.52-11.87,10.2-7.81a2.59,2.59,0,0,0,1-1.4,2,2,0,0,0-.21-1.56,2,2,0,0,0-1.26-1.05,2.37,2.37,0,0,0-2.22.52l-9.16,7-4.17-11a2.38,2.38,0,0,0-1.59-1.53,2.49,2.49,0,0,0-1.69.17,2.11,2.11,0,0,0-1.25,1.45,2.45,2.45,0,0,0,0,1.54l4.59,12-10.26,7.66a2.21,2.21,0,0,0-.89,1.22,2.18,2.18,0,0,0,.21,1.63A2,2,0,0,0,627.83,659.4Z"/>
          </g>
          <path id="Icon_metro-earth-3" data-name="Icon metro-earth" class="cls-3" d="M525.5,499.35h0a22.14,22.14,0,1,1-22.14-22.14A22.13,22.13,0,0,1,525.5,499.35Zm-22.13,19.37a19.34,19.34,0,0,0,13.84-5.83,1.66,1.66,0,0,1,0-.22,32.52,32.52,0,0,0,.37-16.1h-.41a8.31,8.31,0,0,1-5.87-14.18c.17-.16.34-.32.52-.47a19.44,19.44,0,0,0-14-1.15v3.35a1.38,1.38,0,0,1-.41,1l-5.53,5.54a1.38,1.38,0,0,1-1,.4h-5.05a19.38,19.38,0,0,0,6.43,24.2v-8.12l-4.76-2.39a1.37,1.37,0,0,1-.77-1.23v-8.31a1.38,1.38,0,0,1,1.38-1.38h5.54a1.4,1.4,0,0,1,1,.41s5.21,5.13,10.09,5.13h0a1.38,1.38,0,0,1,1.38,1.38v4.15a1.35,1.35,0,0,1-.35.92L495.7,517.14a19.42,19.42,0,0,0,7.66,1.58Z"/>
          <path id="Icon_simple-mail-dot-ru-3" data-name="Icon simple-mail-dot-ru" class="cls-3" d="M780.15,503.25a12.92,12.92,0,0,0,12.56,12.57,12.47,12.47,0,0,0,8.83-3.67l0,1.25c0,3.82,4.95,6.37,8.3,3.75,7.4-5.77,7.84-20.61.26-28.53A23.3,23.3,0,0,0,781.71,485c-11.93,7.1-12.17,20.8-7.67,28.59,6.66,11.54,20.91,11.76,26,9.58,3.39-1.45,1.89-5.86-1.38-4.54-6.44,2.6-17.29,0-21.08-8.75a17,17,0,0,1,5.7-20.41,18.93,18.93,0,0,1,22.53,1.76c7.91,6.92,4.55,18.86,1.74,21.75a1.17,1.17,0,0,1-1,.3,1.14,1.14,0,0,1-.94-1.3v-17.5a2,2,0,0,0-2-2h-.35a1.85,1.85,0,0,0-1.72,2h0a12.66,12.66,0,0,0-8.9-3.84A13,13,0,0,0,780.15,503.25Zm21,.5a8.25,8.25,0,0,1-8.48,7.95c-4.45,0-7.85-3.2-7.85-8.27,0-4.52,2.81-8.51,7.87-8.51h.36a8,8,0,0,1,8.08,7.84Z"/>
          <path id="Icon_awesome-star-22" data-name="Icon awesome-star" class="cls-3" d="M652.91,727.19l2.42,4.9,5.4.78a1.18,1.18,0,0,1,.65,2l-3.91,3.81.93,5.38a1.19,1.19,0,0,1-1,1.37,1.21,1.21,0,0,1-.75-.12l-4.83-2.54L647,745.33a1.2,1.2,0,0,1-1.6-.5,1.21,1.21,0,0,1-.12-.75l.92-5.38-3.9-3.81a1.18,1.18,0,0,1,0-1.67,1.21,1.21,0,0,1,.68-.35l5.4-.78,2.42-4.9a1.19,1.19,0,0,1,1.59-.54A1.2,1.2,0,0,1,652.91,727.19Z"/>
          <path id="Icon_awesome-star-23" data-name="Icon awesome-star" class="cls-3" d="M782,729.37,786,733l5.31-1.28a1.19,1.19,0,0,1,1.43.88,1.17,1.17,0,0,1-.07.76l-2.21,5,2.85,4.65a1.18,1.18,0,0,1-.39,1.63,1.13,1.13,0,0,1-.74.17l-5.43-.56-3.54,4.15a1.19,1.19,0,0,1-1.67.13,1.22,1.22,0,0,1-.39-.65L780,742.54l-5-2.08a1.18,1.18,0,0,1-.64-1.55,1.16,1.16,0,0,1,.5-.57l4.72-2.74.42-5.44a1.2,1.2,0,0,1,1.28-1.09A1.17,1.17,0,0,1,782,729.37Z"/>
          <path id="Icon_awesome-star-24" data-name="Icon awesome-star" class="cls-3" d="M777.59,557.13l2.77,4.7,5.44.39a1.2,1.2,0,0,1,1.1,1.27,1.16,1.16,0,0,1-.3.7L783,568.27l1.32,5.3a1.18,1.18,0,0,1-.86,1.43,1.16,1.16,0,0,1-.76-.06l-5-2.18L773,575.65a1.18,1.18,0,0,1-1.63-.39,1.22,1.22,0,0,1-.17-.73l.52-5.43-4.17-3.51a1.19,1.19,0,0,1-.15-1.67,1.16,1.16,0,0,1,.65-.39l5.33-1.19,2.05-5.06a1.19,1.19,0,0,1,1.54-.65A1.14,1.14,0,0,1,777.59,557.13Z"/>
          <path id="Icon_awesome-star-25" data-name="Icon awesome-star" class="cls-3" d="M512.84,721.37l1.43,5.27,5.15,1.82a1.19,1.19,0,0,1,.73,1.51,1.24,1.24,0,0,1-.47.59l-4.57,3L515,739a1.18,1.18,0,0,1-1.21,1.15,1.21,1.21,0,0,1-.71-.26l-4.26-3.42L503.57,738a1.18,1.18,0,0,1-1.47-.8,1.2,1.2,0,0,1,0-.75l1.94-5.1L501,726.9a1.19,1.19,0,0,1,.31-1.65A1.24,1.24,0,0,1,502,725l5.46.27,3.31-4.34a1.18,1.18,0,0,1,1.66-.22A1.12,1.12,0,0,1,512.84,721.37Z"/>
          <path id="Icon_awesome-star-26" data-name="Icon awesome-star" class="cls-3" d="M507.12,557.34l2.42,4.9,5.4.79a1.18,1.18,0,0,1,.65,2l-3.91,3.8.93,5.38a1.19,1.19,0,0,1-1,1.37,1.21,1.21,0,0,1-.75-.12l-4.83-2.54-4.84,2.54a1.18,1.18,0,0,1-1.59-.5,1.21,1.21,0,0,1-.12-.75l.92-5.38-3.9-3.8a1.2,1.2,0,0,1,0-1.68,1.26,1.26,0,0,1,.68-.34l5.4-.79,2.42-4.9a1.19,1.19,0,0,1,1.59-.53A1.14,1.14,0,0,1,507.12,557.34Z"/>
          <path id="Icon_awesome-star-27" data-name="Icon awesome-star" class="cls-3" d="M650.54,550.43l2.41,4.9,5.4.79a1.17,1.17,0,0,1,1,1.34,1.14,1.14,0,0,1-.34.67l-3.91,3.81.92,5.38a1.18,1.18,0,0,1-1,1.37,1.21,1.21,0,0,1-.75-.12L649.47,566l-4.83,2.54a1.19,1.19,0,0,1-1.6-.5,1.14,1.14,0,0,1-.11-.75l.92-5.38-3.91-3.81a1.17,1.17,0,0,1,0-1.67,1.11,1.11,0,0,1,.68-.34l5.4-.79,2.41-4.9a1.18,1.18,0,0,1,1.59-.53A1.2,1.2,0,0,1,650.54,550.43Z"/>
          <path id="Icon_material-data-usage-3" data-name="Icon material-data-usage" class="cls-3" d="M784.48,808.31a22.06,22.06,0,0,1,1.95-9l5.75,3.39a15.92,15.92,0,0,0-1.06,5.62,15.48,15.48,0,0,0,13.27,15.31v6.7A22.14,22.14,0,0,1,784.48,808.31Zm10.07-9.68-5.75-3.39a22.12,22.12,0,1,1,20,35.08v-6.7a15.47,15.47,0,1,0-14.26-25Z"/>
          <path id="Icon_awesome-star-28" data-name="Icon awesome-star" class="cls-3" d="M640.1,463.11l4.68-2.81,5,2.25a1.18,1.18,0,0,0,1.57-.59,1.14,1.14,0,0,0,.07-.75l-1.23-5.32,3.68-4a1.18,1.18,0,0,0-.07-1.67,1.2,1.2,0,0,0-.7-.3l-5.44-.48-2.69-4.75a1.19,1.19,0,0,0-1.62-.43,1.14,1.14,0,0,0-.5.56l-2.13,5-5.34,1.1a1.19,1.19,0,0,0-.93,1.4,1.22,1.22,0,0,0,.39.65l4.12,3.58-.61,5.43a1.18,1.18,0,0,0,1,1.31A1.2,1.2,0,0,0,640.1,463.11Z"/>
          <g class="cls-4">
            <path class="cls-5" d="M490.2,658.47a2.35,2.35,0,0,0-.62-.86,3.44,3.44,0,0,0-2.14-.78,2.25,2.25,0,0,0-1.91.64,2.29,2.29,0,0,0-.46.91,7.13,7.13,0,0,0-.24,1.28l-2.26,17.78a2.29,2.29,0,0,0,.24,1.3,3.56,3.56,0,0,0,.89,1.12,3.36,3.36,0,0,0,1.2.67,2.52,2.52,0,0,0,1.36.07l17.39-4.79c.5-.14,1-.28,1.38-.42a2.17,2.17,0,0,0,1-.6,2.05,2.05,0,0,0,.26-1.81,3.5,3.5,0,0,0-1.2-2,3,3,0,0,0-1-.57,2.07,2.07,0,0,0-1.21,0l-14.27,3.81,1.8-14.56A2.42,2.42,0,0,0,490.2,658.47Z"/>
            <path class="cls-5" d="M487.94,635.2a1.87,1.87,0,0,0-.27,1.19,2.87,2.87,0,0,0,.5,1.37l26.56,39.58a3.19,3.19,0,0,0,.91.92,2.69,2.69,0,0,0,3.54-.61,1.81,1.81,0,0,0,.29-1.21,3.13,3.13,0,0,0-.51-1.35l-26.59-39.54a3.19,3.19,0,0,0-.91-.92,2.62,2.62,0,0,0-3.52.57Z"/>
            <path class="cls-5" d="M522.22,632.5a2.21,2.21,0,0,0-1.32,0l-17.39,4.79c-.49.14-.95.28-1.37.43a1.73,1.73,0,0,0-1.22,2.38,3.49,3.49,0,0,0,1.2,2.06,2.85,2.85,0,0,0,1,.56,2,2,0,0,0,1.2,0l14.27-3.81-1.8,14.56a2.57,2.57,0,0,0,.14,1.13,2.27,2.27,0,0,0,.64.88,3.45,3.45,0,0,0,2.15.78,2,2,0,0,0,2.36-1.58c.09-.37.17-.79.24-1.25l2.26-17.78a2.29,2.29,0,0,0-.24-1.3,3.56,3.56,0,0,0-.89-1.12A3.4,3.4,0,0,0,522.22,632.5Z"/>
          </g>
          <path id="Icon_awesome-laptop-code-2" data-name="Icon awesome-laptop-code" class="cls-3" d="M797.29,648.36l5.34-3.55h0a1.25,1.25,0,0,1,1.73.34l3.55,5.35h0a1.24,1.24,0,0,1-.35,1.73l-1,.69h0a1.26,1.26,0,0,1-1.73-.35l-2.17-3.27-3.27,2.18h0a1.24,1.24,0,0,1-1.73-.35l-.69-1h0a1.24,1.24,0,0,1,.34-1.73Zm-.63,7.5h0a1.25,1.25,0,0,1,1.73.35l2.18,3.27,3.25-2.18h0a1.25,1.25,0,0,1,1.73.35l.69,1.05h0a1.24,1.24,0,0,1-.34,1.72L800.55,664h0a1.25,1.25,0,0,1-1.73-.35l-3.55-5.35h0a1.24,1.24,0,0,1,.35-1.72l1-.7Zm-18.29,19.26-1.23-.24a5,5,0,0,1-3.9-5.87l7.87-39.07A5,5,0,0,1,787,626l1.22.25a1.25,1.25,0,0,1,1,1.47L785.49,646a2.65,2.65,0,0,0-2.94,2l-.93,4.64,0,.13a2.45,2.45,0,0,0,2,2.86l-3.73,18.5A1.25,1.25,0,0,1,778.37,675.12ZM783,671l7.86-39.07,25.64,5.16a3.75,3.75,0,0,1,2.93,4.4l-6.39,31.74a3.75,3.75,0,0,1-4.4,2.93Zm25.4,0,5.9-29.3-19.54-3.93-5.89,29.29Z"/>
        </g>
        <g class="cls-4">
          <g>
            <polygon class="cls-5" points="31.98 533.37 31.87 533.26 31.7 533.43 31.98 533.37"/>
            <path class="cls-5" d="M25.4,513.09,22.57,521a.62.62,0,0,0,.11.66l11.16,11.07a.63.63,0,0,0,.64.11l7.31-2.45a1,1,0,0,0,.59-.57l8.92-24.09c.15-.4-.3-.63-.62-.3L37.14,519.09l-.11.13a2.51,2.51,0,1,1-.93-.92l.09-.08,13.54-13.66c.28-.28.08-.69-.28-.56L26,512.52A1,1,0,0,0,25.4,513.09Z"/>
            <polygon class="cls-5" points="21.09 522.58 21.05 522.69 21.13 522.61 21.09 522.58"/>
            <path class="cls-5" d="M20.33,523.43l-6.57,6.62a.36.36,0,0,0,0,.5L25.23,541.9a.35.35,0,0,0,.49,0l6.57-6.63a.35.35,0,0,0,0-.49L20.82,523.44A.34.34,0,0,0,20.33,523.43Z"/>
          </g>
          <path class="cls-5" d="M72.21,522.15a3.93,3.93,0,0,1-.79-4.66L56.58,504.27l-1.64,1.84-5.15-4.59,1.64-1.84L36.6,486.48a3.94,3.94,0,1,1,.44-6.22l.08.07h0a3.94,3.94,0,0,1,.79,4.66l14.83,13.22,1.64-1.84L59.54,501,57.9,502.8,72.72,516a4,4,0,0,1,4.82.32l.08.08h0a3.94,3.94,0,0,1-5.41,5.74Z"/>
        </g>
        <g class="cls-4">
          <path class="cls-5" d="M173.21,662.54a2.51,2.51,0,0,0-1.83,0,2.17,2.17,0,0,0-1.21,1.35,2.07,2.07,0,0,0,.12,1.76,2.64,2.64,0,0,0,1.43,1.13l13.55,4.72a6.22,6.22,0,0,1,4.26,5,6.55,6.55,0,0,1-.29,3.25,6.08,6.08,0,0,1-4.59,4,6.68,6.68,0,0,1-3.52-.32l-13.54-4.72a2.26,2.26,0,0,0-1.87.12,2.33,2.33,0,0,0-1.2,1.33,2.5,2.5,0,0,0,.06,1.94,2.3,2.3,0,0,0,1.39,1.25L179.51,688a11.84,11.84,0,0,0,6,.59,10.3,10.3,0,0,0,5-2.36,11.4,11.4,0,0,0,3.23-4.94,11.19,11.19,0,0,0,.53-5.86,10.2,10.2,0,0,0-2.47-5,11.94,11.94,0,0,0-5-3.25Z"/>
          <path class="cls-5" d="M179,638.59a2.39,2.39,0,0,0,.45,2.21l6.31,9.43-11,3.52a2.4,2.4,0,0,0-1.61,1.5,2.47,2.47,0,0,0,.11,1.78,2.25,2.25,0,0,0,1.38,1.3,2.18,2.18,0,0,0,1.51,0l12.1-3.86,7.25,10.6a2.57,2.57,0,0,0,1.33,1.1,2.09,2.09,0,0,0,1.58-.12,2,2,0,0,0,1.11-1.21,2.36,2.36,0,0,0-.39-2.23l-6.52-9.54,11.17-3.57a2.37,2.37,0,0,0,1.61-1.49,2.55,2.55,0,0,0-.08-1.71,2.07,2.07,0,0,0-1.38-1.32,2.39,2.39,0,0,0-1.54,0l-12.26,3.91L183,638.18a2.3,2.3,0,0,0-1.18-.95,2.16,2.16,0,0,0-1.64.12A2.05,2.05,0,0,0,179,638.59Z"/>
        </g>
        <path id="Icon_metro-earth-4" data-name="Icon metro-earth" class="cls-3" d="M345.81,665.79h0a22.14,22.14,0,1,1-22.14-22.14A22.14,22.14,0,0,1,345.81,665.79Zm-22.14,19.37a19.29,19.29,0,0,0,13.84-5.82,1.85,1.85,0,0,1,0-.23,32.52,32.52,0,0,0,.36-16.1h-.41a8.3,8.3,0,0,1-5.86-14.17,5.91,5.91,0,0,1,.52-.48,19.44,19.44,0,0,0-14-1.15v3.35a1.39,1.39,0,0,1-.41,1l-5.54,5.53a1.36,1.36,0,0,1-1,.41h-5.05a19.37,19.37,0,0,0,6.43,24.2v-8.12l-4.77-2.39a1.37,1.37,0,0,1-.76-1.24v-8.3a1.38,1.38,0,0,1,1.38-1.38H314a1.38,1.38,0,0,1,1,.4c.05.05,5.21,5.13,10.09,5.13h0a1.38,1.38,0,0,1,1.39,1.38v4.16a1.42,1.42,0,0,1-.35.92L316,683.59a19.2,19.2,0,0,0,7.66,1.57Z"/>
        <path id="Icon_simple-mail-dot-ru-4" data-name="Icon simple-mail-dot-ru" class="cls-3" d="M327.78,809.33a12.92,12.92,0,0,0,12.57,12.57,12.43,12.43,0,0,0,8.82-3.67l0,1.25c0,3.81,4.94,6.37,8.3,3.75,7.4-5.78,7.84-20.61.25-28.53a23.27,23.27,0,0,0-28.41-3.65c-11.94,7.1-12.18,20.8-7.67,28.59,6.65,11.54,20.91,11.76,26,9.57,3.39-1.44,1.88-5.85-1.38-4.53-6.44,2.6-17.29,0-21.08-8.75a17,17,0,0,1,5.69-20.42,19,19,0,0,1,22.53,1.76c7.91,6.93,4.55,18.87,1.75,21.76a1.15,1.15,0,0,1-1,.29,1.13,1.13,0,0,1-.93-1.3v-17.5a2,2,0,0,0-2-2H351a1.85,1.85,0,0,0-1.72,2h0a12.66,12.66,0,0,0-8.9-3.84A13,13,0,0,0,327.78,809.33Zm21,.5a8.24,8.24,0,0,1-8.47,7.95c-4.46,0-7.85-3.2-7.85-8.27,0-4.53,2.8-8.51,7.87-8.51h.35a8,8,0,0,1,8.09,7.84Z"/>
        <path id="Icon_awesome-star-29" data-name="Icon awesome-star" class="cls-3" d="M182.76,588.27l-2.41-4.89-5.4-.79a1.18,1.18,0,0,1-1-1.34,1.11,1.11,0,0,1,.34-.68l3.91-3.81-.92-5.38a1.18,1.18,0,0,1,1-1.36,1.09,1.09,0,0,1,.75.12l4.84,2.54,4.83-2.54a1.17,1.17,0,0,1,1.59.5,1.19,1.19,0,0,1,.12.74l-.92,5.38,3.91,3.81a1.19,1.19,0,0,1-.66,2l-5.4.79-2.41,4.89a1.19,1.19,0,0,1-1.59.54A1.23,1.23,0,0,1,182.76,588.27Z"/>
        <path id="Icon_awesome-star-30" data-name="Icon awesome-star" class="cls-3" d="M53.71,586.09l-4.06-3.64-5.31,1.27a1.19,1.19,0,0,1-1.43-.88,1.21,1.21,0,0,1,.07-.75l2.22-5-2.86-4.65a1.18,1.18,0,0,1,.39-1.63,1.27,1.27,0,0,1,.74-.17l5.43.57,3.55-4.16a1.17,1.17,0,0,1,1.66-.12,1.13,1.13,0,0,1,.39.64l1.14,5.34,5,2.09a1.18,1.18,0,0,1,.65,1.54,1.21,1.21,0,0,1-.5.57l-4.73,2.74-.42,5.45a1.18,1.18,0,0,1-1.27,1.08A1.14,1.14,0,0,1,53.71,586.09Z"/>
        <path id="Icon_awesome-star-31" data-name="Icon awesome-star" class="cls-3" d="M58.09,758.34l-2.77-4.71-5.45-.39A1.18,1.18,0,0,1,48.78,752a1.13,1.13,0,0,1,.29-.7l3.62-4.09-1.32-5.3a1.19,1.19,0,0,1,.87-1.43,1.2,1.2,0,0,1,.75.06l5,2.18,4.63-2.89a1.18,1.18,0,0,1,1.63.39,1.12,1.12,0,0,1,.17.73l-.52,5.44,4.18,3.51a1.17,1.17,0,0,1,.14,1.66,1.2,1.2,0,0,1-.65.4l-5.33,1.18-2,5.06a1.17,1.17,0,0,1-1.54.65A1.19,1.19,0,0,1,58.09,758.34Z"/>
        <path id="Icon_awesome-star-32" data-name="Icon awesome-star" class="cls-3" d="M322.83,594.09l-1.43-5.27L316.25,587a1.18,1.18,0,0,1-.72-1.51,1.12,1.12,0,0,1,.47-.6l4.56-3,.13-5.45a1.19,1.19,0,0,1,1.21-1.16,1.21,1.21,0,0,1,.71.26l4.26,3.43,5.23-1.57a1.18,1.18,0,0,1,1.47.8,1.2,1.2,0,0,1,0,.75l-1.94,5.11,3.11,4.48a1.19,1.19,0,0,1-1,1.86l-5.46-.26-3.31,4.34a1.19,1.19,0,0,1-1.66.22A1.24,1.24,0,0,1,322.83,594.09Z"/>
        <path id="Icon_awesome-star-33" data-name="Icon awesome-star" class="cls-3" d="M328.55,758.12l-2.41-4.89-5.4-.79a1.19,1.19,0,0,1-1-1.35,1.11,1.11,0,0,1,.34-.67l3.91-3.81-.92-5.38a1.18,1.18,0,0,1,1-1.37,1.21,1.21,0,0,1,.75.12l4.84,2.54,4.83-2.54a1.18,1.18,0,0,1,1.59.51,1.11,1.11,0,0,1,.12.74l-.92,5.38,3.91,3.81a1.19,1.19,0,0,1-.66,2l-5.4.79-2.41,4.89a1.19,1.19,0,0,1-1.59.54A1.28,1.28,0,0,1,328.55,758.12Z"/>
        <path id="Icon_awesome-star-34" data-name="Icon awesome-star" class="cls-3" d="M432.23,670l-2.42-4.9-5.4-.79a1.17,1.17,0,0,1-1-1.34,1.26,1.26,0,0,1,.34-.68l3.91-3.8-.92-5.38a1.18,1.18,0,0,1,1-1.37,1.22,1.22,0,0,1,.75.12l4.83,2.54,4.83-2.54a1.19,1.19,0,0,1,1.6.5,1.21,1.21,0,0,1,.12.75l-.93,5.38,3.91,3.8a1.19,1.19,0,0,1,0,1.68,1.17,1.17,0,0,1-.67.34l-5.41.79-2.41,4.9a1.19,1.19,0,0,1-1.59.53A1.14,1.14,0,0,1,432.23,670Z"/>
        <path id="Icon_awesome-star-35" data-name="Icon awesome-star" class="cls-3" d="M185.14,765l-2.42-4.89-5.4-.79a1.18,1.18,0,0,1-.65-2l3.9-3.81-.92-5.38a1.18,1.18,0,0,1,1-1.36,1.15,1.15,0,0,1,.75.11l4.83,2.54,4.83-2.54a1.19,1.19,0,0,1,1.72,1.25l-.93,5.38,3.91,3.81a1.17,1.17,0,0,1,0,1.67,1.15,1.15,0,0,1-.67.35l-5.4.79L187.26,765a1.19,1.19,0,0,1-1.59.54A1.2,1.2,0,0,1,185.14,765Z"/>
        <path id="Icon_material-data-usage-4" data-name="Icon material-data-usage" class="cls-3" d="M351.84,505.42a21.86,21.86,0,0,1-1.94,9L344.15,511a15.88,15.88,0,0,0,1.06-5.62,15.47,15.47,0,0,0-13.27-15.3v-6.7A22.12,22.12,0,0,1,351.84,505.42Zm-10.06,9.68,5.75,3.39a22.12,22.12,0,1,1-20-35.07v6.7a15.47,15.47,0,1,0,14.27,25Z"/>
        <g class="cls-4">
          <path class="cls-5" d="M28.42,809a2.18,2.18,0,0,1-.61.87,3.45,3.45,0,0,1-2.15.78,2.26,2.26,0,0,1-1.91-.64,2.68,2.68,0,0,1-.46-.91,6.38,6.38,0,0,1-.23-1.28L20.8,790.07a2.28,2.28,0,0,1,.24-1.29,3.67,3.67,0,0,1,.88-1.12,3.54,3.54,0,0,1,1.2-.67,2.63,2.63,0,0,1,1.36-.08l17.4,4.8c.49.14.95.28,1.37.42a2.15,2.15,0,0,1,1,.6,2.08,2.08,0,0,1,.26,1.81,3.52,3.52,0,0,1-1.21,2,2.88,2.88,0,0,1-1,.57,2.07,2.07,0,0,1-1.21,0l-14.27-3.82,1.81,14.57A2.37,2.37,0,0,1,28.42,809Z"/>
          <path class="cls-5" d="M26.17,832.32a1.84,1.84,0,0,1-.27-1.2,2.85,2.85,0,0,1,.49-1.36L53,790.18a3.22,3.22,0,0,1,.92-.92,2.4,2.4,0,0,1,2-.34,2.47,2.47,0,0,1,1.5,1,1.81,1.81,0,0,1,.28,1.21,3,3,0,0,1-.5,1.35L30.6,832a3.32,3.32,0,0,1-.91.92,2.46,2.46,0,0,1-2.06.37A2.39,2.39,0,0,1,26.17,832.32Z"/>
          <path class="cls-5" d="M60.45,835a2.21,2.21,0,0,1-1.32,0l-17.39-4.79c-.5-.14-1-.29-1.38-.43a2.16,2.16,0,0,1-1-.59,2.09,2.09,0,0,1-.25-1.79,3.48,3.48,0,0,1,1.19-2.06,2.85,2.85,0,0,1,1-.56,2,2,0,0,1,1.21,0l14.27,3.81L55,814.08a2.57,2.57,0,0,1,.15-1.13,2.11,2.11,0,0,1,.64-.88,3.42,3.42,0,0,1,2.14-.78,2,2,0,0,1,2.37,1.58c.08.37.16.79.24,1.25l2.25,17.78a2.15,2.15,0,0,1-.24,1.3,3.39,3.39,0,0,1-.88,1.12A3.64,3.64,0,0,1,60.45,835Z"/>
        </g>
      </g>
    </pattern>
  </defs>
  <g>
    <rect class="cls-6" width="1366" height="1455"/>
    <rect class="cls-6" width="1366" height="1455"/>
  </g>
</svg>
