<svg xmlns="http://www.w3.org/2000/svg" xmlns:xlink="http://www.w3.org/1999/xlink" width="119.22" height="80.96" viewBox="0 0 119.22 80.96">
  <defs>
    <style>
      .cls-1 {
        fill: url(#Degradado_sin_nombre_611);
      }

      .cls-2 {
        fill: url(#Degradado_sin_nombre_611-2);
      }

      .cls-3 {
        fill: url(#Degradado_sin_nombre_611-3);
      }

      .cls-4 {
        fill: url(#Degradado_sin_nombre_611-4);
      }

      .cls-5 {
        fill: url(#Degradado_sin_nombre_634);
      }

      .cls-6 {
        fill: url(#Degradado_sin_nombre_634-2);
      }

      .cls-7 {
        fill: url(#Degradado_sin_nombre_634-3);
      }
    </style>
    <linearGradient id="Degradado_sin_nombre_611" data-name="Degradado sin nombre 611" x1="94.8" x2="94.8" y2="47.92" gradientUnits="userSpaceOnUse">
      <stop offset="0.01" stop-color="#005f89"/>
      <stop offset="1" stop-color="#005189"/>
    </linearGradient>
    <linearGradient id="Degradado_sin_nombre_611-2" x1="81.47" y1="8.19" x2="81.47" y2="11.38" xlink:href="#Degradado_sin_nombre_611"/>
    <linearGradient id="Degradado_sin_nombre_611-3" x1="14.33" y1="46.25" x2="14.33" y2="73.74" xlink:href="#Degradado_sin_nombre_611"/>
    <linearGradient id="Degradado_sin_nombre_611-4" x1="39.57" y1="53.47" x2="39.57" y2="80.96" xlink:href="#Degradado_sin_nombre_611"/>
    <linearGradient id="Degradado_sin_nombre_634" data-name="Degradado sin nombre 634" x1="60.14" y1="45.9" x2="60.14" y2="74.12" gradientUnits="userSpaceOnUse">
      <stop offset="0.01" stop-color="#e18d07"/>
      <stop offset="1" stop-color="#e17807"/>
    </linearGradient>
    <linearGradient id="Degradado_sin_nombre_634-2" x1="103.31" y1="46.25" x2="103.31" y2="73.74" xlink:href="#Degradado_sin_nombre_634"/>
    <linearGradient id="Degradado_sin_nombre_634-3" x1="81.99" y1="45.82" x2="81.99" y2="77.49" xlink:href="#Degradado_sin_nombre_634"/>
  </defs>
  <g id="Capa_2" data-name="Capa 2">
    <g id="Capa_1-2" data-name="Capa 1">
      <g>
        <g>
          <path class="cls-1" d="M119.22,47.82v.1c-.47-.16-.7-.6-1.07-.85-.73-.5-1.46-1.09-2.18-1.55-1.27-.81-2.73-1.28-4-2.07-.72-.47-1.42-1-2.12-1.54a7.72,7.72,0,0,1-1.71-2c-.24-.37-.28-.8-.55-1.07.07-.63.86-.63,1.36-.83a15.21,15.21,0,0,1,6.44-.93v0c-.09-.67-1.75-1.5-2.3-1.88-1.07-.76-2.18-1.56-3.32-2.25-.75-.35-1.51-.66-2.29-.94s-2.89-.72-3.39-1.42a21.31,21.31,0,0,1-2.36-4.45c-.71-1.58-1.57-3.24-2.26-4.88-.36-.79-.54-1.49-.94-2.26A29.47,29.47,0,0,0,88.13,7.6a21.16,21.16,0,0,0-4.77-2.29c-1-.29-2.2-.13-3.26-.36h-.7c-.59-.16-1.09-.79-1.56-1.12a16.64,16.64,0,0,0-3.29-1.66c-.44-.2-1.66-.66-2.09-.3a.55.55,0,0,0-.47.44c-.26.4,0,1,.14,1.36A16.09,16.09,0,0,0,74,6.26,17.06,17.06,0,0,1,75.61,8.8c.86,1.86,1.26,3.92,2.06,5.78a12,12,0,0,0,1.19,2.12c.36.51,1,.87,1.23,1.5.4.67-.6,2.87-.83,3.56a14.38,14.38,0,0,0,.3,8.87c.39.92.76,2,1.82,2.28.07-.07,0,0,.14-.07a19.17,19.17,0,0,1,.93-5A12.13,12.13,0,0,1,84,25.58c.33.19.33.79.53,1.19.45,1,.89,2.15,1.44,3.19a43,43,0,0,0,3.71,6,17.34,17.34,0,0,0,1.74,2,4.4,4.4,0,0,1,.77.66h.07v.1c-1-.35-1.62-1.39-2.42-2a18.93,18.93,0,0,1-4.3-4.45c-.43-.94-.9-1.82-1.36-2.76V29.5c-.21.27-.14.53-.24.93-.43,1.66-.1,3.55-1.59,4.15-1.7.7-3-1.13-3.5-1.95a14.73,14.73,0,0,1-1-11.18A9.39,9.39,0,0,1,78.7,19c-.11-.6-.56-.77-.83-1.13a15.24,15.24,0,0,1-1.23-2.05,41.53,41.53,0,0,1-1.73-4.46c-.23-.6-.29-1.19-.53-1.77A15.44,15.44,0,0,0,72.7,7.08c-.78-1.09-3-3.22-2.1-5.37,1.39-3.42,6.28-.84,8.17.35a11.78,11.78,0,0,0,1.54,1.17l2.48.14a16,16,0,0,1,4.27,1.34A33.47,33.47,0,0,1,99.91,17.13a34.71,34.71,0,0,1,1.69,3.79c.83,1.93,1.76,3.95,2.71,5.78a13.17,13.17,0,0,0,1.36,2.57c.22.33.89.43,1.29.63,1.1.56,2.42,1,3.46,1.66a42.81,42.81,0,0,1,5.48,4.08c.62.56,1.06,1.37,1.66,2v.3c-.53.16-1.06.33-1.59.46-1.16.3-2.2.23-3.33.53a13.71,13.71,0,0,1-2.28.53l.06.06c.44,1.22,2.77,2.23,3.83,3a16.12,16.12,0,0,1,3.45,3.35c.33.33.66.63,1,1S119,47.53,119.22,47.82Z"/>
          <path class="cls-2" d="M82.79,9.64a1.85,1.85,0,0,1-.69,1.66l-.07.08c-.27-.53-.5-1.06-.77-1.59A11.55,11.55,0,0,1,80.2,8.43h-.07V8.37a5.17,5.17,0,0,1,1.36-.17h0c.27.26.7.43.89.76S82.59,9.41,82.79,9.64Z"/>
          <path class="cls-3" d="M28.67,73.74H24.05c-.14-7.76-.61-15-1.34-21.91h0l-7,21.91h-3.5l-7-21.91h0q-.76,9.87-1,21.91H0Q.41,59.1,2,46.25H7.75l6.62,20.2h0l6.69-20.2h5.45Q28.35,61.27,28.67,73.74Z"/>
          <path class="cls-4" d="M48.62,53.47a62.37,62.37,0,0,1-7.41,22.16A9.9,9.9,0,0,1,33.34,81a7.59,7.59,0,0,1-2.81-.69V77.82a13.56,13.56,0,0,0,1.92.13,4.64,4.64,0,0,0,3.21-1.1,4,4,0,0,0,1.47-3A20,20,0,0,0,36,69.15L31,53.47h4.52L39.08,65.2a15.82,15.82,0,0,1,1,5.57,75.65,75.65,0,0,0,4.15-17.3Z"/>
        </g>
        <g>
          <path class="cls-5" d="M68.77,66.13h0a7.29,7.29,0,0,1-2.57,5.74,10.06,10.06,0,0,1-6.87,2.24,13.77,13.77,0,0,1-7.81-2.56l1.18-2.36a13.42,13.42,0,0,0,5.91,1.63,6.21,6.21,0,0,0,3.89-1.1,3.75,3.75,0,0,0,1.49-3c0-1.66-1.15-3-3.22-4.2S55,59.21,55,59.21a6.61,6.61,0,0,1-3.14-5.85A6.8,6.8,0,0,1,54.16,48a8.8,8.8,0,0,1,6.06-2.06,12.34,12.34,0,0,1,7,2l-1,2.36a13.64,13.64,0,0,0-5.3-1.14,4.67,4.67,0,0,0-3.25,1,3.4,3.4,0,0,0-1.23,2.6c0,1.63,1.16,3,3.31,4.23,2,1.07,5.9,3.31,5.9,3.31A6.47,6.47,0,0,1,68.77,66.13Z"/>
          <polygon class="cls-6" points="109.84 70.35 109.84 73.74 96.77 73.74 96.77 46.25 101.17 46.25 101.17 70.35 109.84 70.35"/>
          <path class="cls-7" d="M93.35,74.4l-5-2.48a10.54,10.54,0,0,0,1.26-1.24,16.76,16.76,0,0,0,3.22-11.2q0-13.63-10.7-13.64a10.23,10.23,0,0,0-8.2,3.46,16.93,16.93,0,0,0-3.21,11.16,16.34,16.34,0,0,0,2.85,10.63,9.78,9.78,0,0,0,7.87,3,12.5,12.5,0,0,0,3.6-.48l6.58,3.83,1.79-3.09ZM88.13,60.29q0,10.47-6.3,10.47A5.28,5.28,0,0,1,77,68.28l0,0a16.94,16.94,0,0,1-1.67-8.61q0-10.38,6.31-10.38a5.3,5.3,0,0,1,4.85,2.48A16.87,16.87,0,0,1,88.13,60.29Z"/>
        </g>
      </g>
    </g>
  </g>
</svg>
