<svg xmlns="http://www.w3.org/2000/svg" xmlns:xlink="http://www.w3.org/1999/xlink" width="102.08" height="102.08" viewBox="0 0 102.08 102.08">
  <defs>
    <style>
      .cls-1 {
        fill: url(#Degradado_sin_nombre_191);
      }
    </style>
    <linearGradient id="Degradado_sin_nombre_191" data-name="Degradado sin nombre 191" x1="51.04" x2="51.04" y2="102.08" gradientUnits="userSpaceOnUse">
      <stop offset="0" stop-color="#f0db4f"/>
      <stop offset="1" stop-color="#f0c74f"/>
    </linearGradient>
  </defs>
  <g id="Capa_2" data-name="Capa 2">
    <g id="Capa_1-2" data-name="Capa 1">
      <g>
        <path class="cls-1" d="M95.45,0H6.62A6.62,6.62,0,0,0,0,6.62V95.46a6.62,6.62,0,0,0,6.62,6.62H95.45a6.63,6.63,0,0,0,6.63-6.62V6.62A6.63,6.63,0,0,0,95.45,0ZM53.8,87.66a11.92,11.92,0,0,1-7.71,6A18.66,18.66,0,0,1,32.51,92l-.09,0a14.91,14.91,0,0,1-5.2-5.64.92.92,0,0,1,.32-1.23l6.3-3.88a.9.9,0,0,1,1.27.37,8.3,8.3,0,0,0,3.46,3.6.76.76,0,0,0,.16.06c1.68.51,5.2.82,6.58-2.06.85-1.48.59-6.29.59-11.53,0-7.94,0-15.84,0-23.77a.93.93,0,0,1,.92-.93h8.67l0,.24c0,8.81,0,17.55,0,26.28C55.5,78.88,56,83.69,53.8,87.66Zm39.41-3.2C89.88,95.82,71.39,96.2,64,88.74a17.26,17.26,0,0,1-3-3.9.92.92,0,0,1,.33-1.27L67.54,80a.92.92,0,0,1,1.22.29,11.16,11.16,0,0,0,7,4.91l.14,0c4.64.55,9.31-1,8.29-6-1.09-4.08-9.57-5-15.38-9.37l-.34-.26a13.35,13.35,0,0,1-2.08-18.76,13.66,13.66,0,0,1,7.22-4.26l.1,0,3-.37a14.25,14.25,0,0,1,12,4.39,17.54,17.54,0,0,1,2,2.5.94.94,0,0,1-.28,1.32c-2.14,1.33-2.62,1.64-5.82,3.74a.94.94,0,0,1-1.3-.32,6.88,6.88,0,0,0-3.7-3l-.18-.07a4.87,4.87,0,0,0-6.23,2.78.45.45,0,0,0,0,.19,4.87,4.87,0,0,0,.21,2.9c1,2.37,4.53,3.39,7.66,4.86,9,3.64,12,7.56,12.76,12.21l-.2-.29A14.51,14.51,0,0,1,93.21,84.46Z"/>
        <g>
          <path d="M93.21,84.46C89.88,95.82,71.39,96.2,64,88.74a17.26,17.26,0,0,1-3-3.9.92.92,0,0,1,.33-1.27L67.54,80a.92.92,0,0,1,1.22.29,11.16,11.16,0,0,0,7,4.91l.14,0c4.64.55,9.31-1,8.29-6-1.09-4.08-9.57-5-15.38-9.37l-.34-.26a13.35,13.35,0,0,1-2.08-18.76,13.66,13.66,0,0,1,7.22-4.26l.1,0,3-.37a14.25,14.25,0,0,1,12,4.39,17.54,17.54,0,0,1,2,2.5.94.94,0,0,1-.28,1.32c-2.14,1.33-2.62,1.64-5.82,3.74a.94.94,0,0,1-1.3-.32,6.88,6.88,0,0,0-3.7-3l-.18-.07a4.87,4.87,0,0,0-6.23,2.78.45.45,0,0,0,0,.19,4.87,4.87,0,0,0,.21,2.9c1,2.37,4.53,3.39,7.66,4.86,9,3.64,12,7.56,12.76,12.21l-.2-.29A14.51,14.51,0,0,1,93.21,84.46Z"/>
          <path d="M53.8,87.66a11.92,11.92,0,0,1-7.71,6A18.66,18.66,0,0,1,32.51,92l-.09,0a14.91,14.91,0,0,1-5.2-5.64.92.92,0,0,1,.32-1.23l6.3-3.88a.9.9,0,0,1,1.27.37,8.3,8.3,0,0,0,3.46,3.6.76.76,0,0,0,.16.06c1.68.51,5.2.82,6.58-2.06.85-1.48.59-6.29.59-11.53,0-7.94,0-15.84,0-23.77a.93.93,0,0,1,.92-.93h8.67l0,.24c0,8.81,0,17.55,0,26.28C55.5,78.88,56,83.69,53.8,87.66Z"/>
        </g>
      </g>
    </g>
  </g>
</svg>
