<svg xmlns="http://www.w3.org/2000/svg" xmlns:xlink="http://www.w3.org/1999/xlink" width="105.69" height="102.8" viewBox="0 0 105.69 102.8">
  <defs>
    <style>
      .cls-1 {
        fill: url(#Degradado_sin_nombre_593);
      }

      .cls-2 {
        fill: #31a8ff;
      }
    </style>
    <linearGradient id="Degradado_sin_nombre_593" data-name="Degradado sin nombre 593" x1="52.85" x2="52.85" y2="102.8" gradientUnits="userSpaceOnUse">
      <stop offset="0.01" stop-color="#001e36"/>
      <stop offset="1" stop-color="#000e25"/>
    </linearGradient>
  </defs>
  <g id="Capa_2" data-name="Capa 2">
    <g id="Capa_1-2" data-name="Capa 1">
      <g>
        <rect class="cls-1" width="105.69" height="102.8" rx="17.19"/>
        <path class="cls-2" d="M83.71,62.64c0,7.7-5.86,11.82-13.79,11.82a21,21,0,0,1-9.84-2.06c-.33-.16-.39-.4-.39-.79v-7c0-.49.23-.65.55-.41A17.72,17.72,0,0,0,69.9,67c3.8,0,5.39-1.6,5.39-3.73,0-1.75-1.1-3.26-5.94-5.79-6.82-3.27-9.67-6.59-9.67-12.14C59.68,39.17,64.5,34,72.91,34a22.33,22.33,0,0,1,8.61,1.34,1,1,0,0,1,.49,1v6.59c0,.39-.24.63-.72.48a17,17,0,0,0-8.38-2.07h0c-3.82,0-5.08,1.9-5.08,3.49s.87,2.93,5.94,5.54C81.33,54,83.71,57.5,83.71,62.64Z"/>
        <path class="cls-2" d="M36.52,20.72c-4.76,0-9.29.08-12.39.24-.39,0-1.07.24-1.07.56h0V73.19c0,.39.15.54.55.54H31c.4,0,.56-.16.56-.55V54.74c1.27,0,1.89.07,3.72.07C46.17,54.81,55,49.58,55,37.37,55,28,49.84,20.72,36.52,20.72Zm-1,26.4c-1.91,0-2.78,0-3.89-.09V28.49c.87-.08,2.7-.17,4.6-.17,6.41,0,10.19,3.12,10.19,9.2C46.37,45.13,41.1,47.12,35.48,47.12Z"/>
      </g>
    </g>
  </g>
</svg>
