<svg xmlns="http://www.w3.org/2000/svg" xmlns:xlink="http://www.w3.org/1999/xlink" width="114.6" height="60.28" viewBox="0 0 114.6 60.28">
  <defs>
    <style>
      .cls-1 {
        fill: url(#Degradado_sin_nombre_455);
      }

      .cls-2 {
        fill: #669;
      }

      .cls-3 {
        fill: #232531;
      }
    </style>
    <linearGradient id="Degradado_sin_nombre_455" data-name="Degradado sin nombre 455" x1="57.3" x2="57.3" y2="60.28" gradientUnits="userSpaceOnUse">
      <stop offset="0" stop-color="#669"/>
      <stop offset="1" stop-color="#665699"/>
    </linearGradient>
  </defs>
  <g id="Capa_2" data-name="Capa 2">
    <g id="Capa_1-2" data-name="Capa 1">
      <g>
        <path class="cls-1" d="M57.3,0C25.65,0,0,13.49,0,30.14S25.65,60.28,57.3,60.28s57.3-13.49,57.3-30.14S89,0,57.3,0ZM41.74,35.57h0a11.58,11.58,0,0,1-4.37,2.63,20.58,20.58,0,0,1-6.14.78H25.58L24,47H17.44L23.31,16.8H36a10.53,10.53,0,0,1,8.33,3,9.38,9.38,0,0,1,1.57,8.37A13.14,13.14,0,0,1,41.74,35.57ZM61,39l2.59-13.36a3.59,3.59,0,0,0-.32-3.11,4.61,4.61,0,0,0-3.28-.83H54.72L51.36,39H44.83L50.7,8.78h6.53l-1.56,8h5.82a11.35,11.35,0,0,1,7.57,1.91,6.37,6.37,0,0,1,1.26,6.2L67.59,39ZM97.24,28.17a13.36,13.36,0,0,1-1.45,4,13.77,13.77,0,0,1-2.68,3.35,11.7,11.7,0,0,1-4.38,2.63,20.3,20.3,0,0,1-6.15.79H77l-1.56,8H68.8l5.87-30.21H87.32a10.49,10.49,0,0,1,8.33,3A9.36,9.36,0,0,1,97.24,28.17Z"/>
        <path class="cls-2" d="M33.47,21.58H29L26.51,34.22h4a9.66,9.66,0,0,0,5.94-1.5,8,8,0,0,0,2.62-5A5.49,5.49,0,0,0,38.47,23,6.72,6.72,0,0,0,33.47,21.58Z"/>
        <path class="cls-2" d="M84.85,21.57H80.33L77.87,34.21h4a9.68,9.68,0,0,0,5.93-1.49,8,8,0,0,0,2.63-5A5.52,5.52,0,0,0,89.84,23,6.74,6.74,0,0,0,84.85,21.57Z"/>
        <path class="cls-3" d="M95.65,19.81a10.49,10.49,0,0,0-8.33-3H74.67L68.8,47h6.59L77,39h5.63a20.3,20.3,0,0,0,6.15-.79,11.7,11.7,0,0,0,4.38-2.63,13.77,13.77,0,0,0,2.68-3.35,13.36,13.36,0,0,0,1.45-4A9.36,9.36,0,0,0,95.65,19.81Zm-5.22,7.9a8,8,0,0,1-2.63,5,9.68,9.68,0,0,1-5.93,1.49h-4l2.46-12.64h4.52a6.74,6.74,0,0,1,5,1.38A5.52,5.52,0,0,1,90.43,27.71Z"/>
        <path class="cls-3" d="M70.32,24.92,67.59,39H61l2.59-13.36a3.59,3.59,0,0,0-.32-3.11,4.61,4.61,0,0,0-3.28-.83H54.72L51.36,39H44.83L50.7,8.78h6.53l-1.56,8h5.82a11.35,11.35,0,0,1,7.57,1.91A6.37,6.37,0,0,1,70.32,24.92Z"/>
        <path class="cls-3" d="M44.3,19.8a10.53,10.53,0,0,0-8.33-3H23.31L17.44,47H24l1.56-8h5.64a20.58,20.58,0,0,0,6.14-.78,11.58,11.58,0,0,0,4.37-2.63h0a13.14,13.14,0,0,0,4.13-7.4A9.38,9.38,0,0,0,44.3,19.8Zm-5.24,7.92a8,8,0,0,1-2.62,5,9.66,9.66,0,0,1-5.94,1.5h-4L29,21.58h4.5a6.72,6.72,0,0,1,5,1.38A5.49,5.49,0,0,1,39.06,27.72Z"/>
      </g>
    </g>
  </g>
</svg>
