<svg xmlns="http://www.w3.org/2000/svg" xmlns:xlink="http://www.w3.org/1999/xlink" width="102.8" height="100.06" viewBox="0 0 102.8 100.06">
  <defs>
    <style>
      .cls-1 {
        fill: url(#Degradado_sin_nombre_501);
      }

      .cls-2 {
        fill: #ff61f6;
      }
    </style>
    <linearGradient id="Degradado_sin_nombre_501" data-name="Degradado sin nombre 501" x1="51.4" x2="51.4" y2="100.39" gradientUnits="userSpaceOnUse">
      <stop offset="0.01" stop-color="#470137"/>
      <stop offset="1" stop-color="#3a0137"/>
    </linearGradient>
  </defs>
  <g id="Capa_2" data-name="Capa 2">
    <g id="Capa_1-2" data-name="Capa 1">
      <g>
        <path class="cls-1" d="M85.83,0H17A17,17,0,0,0,0,17V83.1a17,17,0,0,0,17,17H86A16.94,16.94,0,0,0,102.8,83V17A17,17,0,0,0,85.83,0Z"/>
        <path class="cls-2" d="M53.25,74.27l-13-24.91L52.54,25.72a1,1,0,0,0,.09-1,.94.94,0,0,0-.84-.45H44.26a1.41,1.41,0,0,0-1.31.92c-2.52,5.32-5.44,11.54-8.18,17.71-2.3-5.1-4.89-10.64-8.27-17.7a1.23,1.23,0,0,0-1.35-.89h-8a.88.88,0,0,0-.75.29.91.91,0,0,0,0,1.21L28.61,50.16,16,74.26a1,1,0,0,0-.14,1,.92.92,0,0,0,.88.51h7.7a1.44,1.44,0,0,0,1.33-.82c3.14-6.46,6-12.53,8.46-18.07,2.2,4.63,4.36,9.06,6.45,13.37l2.24,4.59a1.45,1.45,0,0,0,1.33,1h8.29a.93.93,0,0,0,.83-.47A1.06,1.06,0,0,0,53.25,74.27Z"/>
        <path class="cls-2" d="M85.1,67.78V24.87a.88.88,0,0,0-1-.92H76.71a1,1,0,0,0-1,1V36.76c-.63,0-1.27-.06-1.87,0a15.9,15.9,0,0,0-1.68,0A18.84,18.84,0,0,0,54.53,56.65c0,6.29,1.79,11.4,5.19,14.77,3.08,3.07,7.44,4.69,12.59,4.69a28.77,28.77,0,0,0,12.34-2.77,1,1,0,0,0,.67-1A32.29,32.29,0,0,1,85.1,67.78ZM75.72,45.07V67.42a8.34,8.34,0,0,1-2.68.35c-5.78,0-9-4.08-9-11.5,0-7,3.72-11.52,9.49-11.52h.14A6.61,6.61,0,0,1,75.72,45.07Z"/>
      </g>
    </g>
  </g>
</svg>
