<svg xmlns="http://www.w3.org/2000/svg" xmlns:xlink="http://www.w3.org/1999/xlink" width="1366" height="1181" viewBox="0 0 1366 1181">
  <defs>
    <style>
      .cls-1 {
        fill: none;
      }

      .cls-2 {
        fill: #efefef;
      }

      .cls-3 {
        fill: url(#Motivo_nuevo_2);
      }
    </style>
    <pattern id="Motivo_nuevo_2" data-name="Motivo nuevo 2" width="289.67" height="252.26" patternUnits="userSpaceOnUse" viewBox="0 0 289.67 252.26">
      <rect class="cls-1" width="289.67" height="252.26"/>
      <g id="Trazado_485" data-name="Trazado 485">
        <path class="cls-2" d="M96.73,100.67a1.68,1.68,0,0,0,1.17-.55l15.29-16.91a1.68,1.68,0,0,0,.44-1.25,1.65,1.65,0,0,0-.58-1.15,1.6,1.6,0,0,0-1.22-.41L89.1,81.92a1.68,1.68,0,0,0-1,2.94l6.4,5.68L95,99.08a1.67,1.67,0,0,0,1.68,1.59ZM97.41,99h0Zm-1.34-.48h0Zm14-15.5L97.31,97.11l-.39-7a1.67,1.67,0,0,0-.56-1.17l-5.27-4.67ZM94.73,90.76Zm-.26-.53h0Zm-5.21-5.86ZM112,82.85Zm-.63-1.28h0Z"/>
      </g>
      <g id="Grupo_147" data-name="Grupo 147">
        <g id="Trazado_486" data-name="Trazado 486">
          <path class="cls-2" d="M181.21,183.44l6.22-8.87a1.51,1.51,0,0,0-.31-2.11l-3.66-2.56a1.42,1.42,0,0,0-1.28-.18,1.6,1.6,0,0,0-.8.61l-6.22,8.86a1.64,1.64,0,0,0-.27,1.19,1.44,1.44,0,0,0,.58.92l3.66,2.56h0a1.43,1.43,0,0,0,.81.25A1.58,1.58,0,0,0,181.21,183.44Zm1.66-11,2,1.42-5.17,7.38-2-1.42Zm-6,6.81h0Zm8.52-6.13h0Zm-2-1.42h0Z"/>
        </g>
        <g id="Grupo_146" data-name="Grupo 146">
          <g id="Trazado_487" data-name="Trazado 487">
            <path class="cls-2" d="M203.93,193.55a1.67,1.67,0,0,0,.75-1,1.63,1.63,0,0,0-.2-1.24l-10.34-16.85a1.66,1.66,0,0,0-1.07-.76l-5.95-1.21a1.65,1.65,0,0,0-1.68.67l-6.26,8.93a1.62,1.62,0,0,0-.05,1.8L182.3,189h0a1.68,1.68,0,0,0,1.07.75l19.36,4a2,2,0,0,0,.34,0A1.64,1.64,0,0,0,203.93,193.55Zm-1.54-1h0Zm.84-1.21h0ZM181.49,183l5.66-8.06,5.08,1,9.19,15-17.21-3.52Zm11.09-6.95h0Z"/>
          </g>
          <g id="Trazado_488" data-name="Trazado 488">
            <path class="cls-2" d="M189.32,182.5l14.09,9.88"/>
            <polygon class="cls-2" points="202.71 193.38 188.61 183.51 190.02 181.49 204.12 191.37 202.71 193.38"/>
          </g>
          <g id="Elipse_8" data-name="Elipse 8">
            <path class="cls-2" d="M190.78,183.52a1.76,1.76,0,0,0,.29-1.32,1.79,1.79,0,0,0-2-1.44,1.75,1.75,0,0,0-1.15.73,1.77,1.77,0,0,0,.44,2.47,1.8,1.8,0,0,0,1,.32A1.77,1.77,0,0,0,190.78,183.52Zm-2-1.4a.68.68,0,1,1,1.12.78l-.11-.08.11.08h0a.69.69,0,0,1-.44.28.72.72,0,0,1-.51-.12.69.69,0,0,1-.28-.44.68.68,0,0,1,.12-.51Z"/>
          </g>
        </g>
      </g>
      <path class="cls-2" d="M106.64,188.8v-14a4.71,4.71,0,0,0-4.7-4.7h-14a4.71,4.71,0,0,0-4.7,4.7v14a4.71,4.71,0,0,0,4.7,4.7h14A4.71,4.71,0,0,0,106.64,188.8Zm-4.7-16.28a2.24,2.24,0,0,1,2.24,2.24v14a2.24,2.24,0,0,1-2.24,2.24h-14a2.24,2.24,0,0,1-2.24-2.24v-14a2.24,2.24,0,0,1,2.24-2.24Z"/>
      <path class="cls-2" d="M203,97.34a12.36,12.36,0,1,0-8.72,3.6A12.34,12.34,0,0,0,203,97.34Zm-1.73-15.71a9.88,9.88,0,0,1-14,14,9.88,9.88,0,0,1,14-14Z"/>
      <path class="cls-2" d="M127.39,134.37l-2-1.42,9.56-13.49a2.34,2.34,0,0,1,3.85.06l8,12.12,10.84-12.4a2.35,2.35,0,0,1,3.82.43l7.27,13.4-2.16,1.17L159.41,121l-10.83,12.38a2.3,2.3,0,0,1-1.92.79,2.34,2.34,0,0,1-1.79-1l-8-12.1Z"/>
      <path class="cls-2" d="M32.35,29.71l0-2.46,16.52.22a2.35,2.35,0,0,1,1.91,1,2.33,2.33,0,0,1,.23,2.17l-5.42,13.5L62,46.07a2.35,2.35,0,0,1,1.82,3.39L56.88,63.05l-2.19-1.11,6.84-13.45L45.19,46.6a2.33,2.33,0,0,1-1.74-1.13,2.36,2.36,0,0,1-.16-2.07l5.42-13.48Z"/>
      <path class="cls-2" d="M225.35,183.71l0-2.46,16.52.22a2.35,2.35,0,0,1,1.91,1,2.33,2.33,0,0,1,.23,2.17l-5.42,13.5L255,200.07a2.35,2.35,0,0,1,1.82,3.39l-6.92,13.59-2.19-1.11,6.84-13.45-16.34-1.89a2.33,2.33,0,0,1-1.74-1.13,2.36,2.36,0,0,1-.16-2.07l5.42-13.48Z"/>
      <path class="cls-2" d="M11.52,204.87l-2.41-.45,3-16.24a2.37,2.37,0,0,1,1.36-1.71,2.32,2.32,0,0,1,2.17.15l12.38,7.64,4.65-15.79a2.34,2.34,0,0,1,3.65-1.21l12.21,9.12-1.47,2-12.08-9L30.36,195.1A2.32,2.32,0,0,1,29,196.62a2.36,2.36,0,0,1-2.07-.19l-12.35-7.64Z"/>
      <path class="cls-2" d="M208.52,51.87l-2.41-.45,3-16.24a2.37,2.37,0,0,1,1.36-1.71,2.32,2.32,0,0,1,2.17.15l12.38,7.64,4.65-15.79a2.34,2.34,0,0,1,3.65-1.21l12.21,9.12-1.47,2-12.08-9L227.36,42.1A2.32,2.32,0,0,1,226,43.62a2.36,2.36,0,0,1-2.07-.19l-12.35-7.64Z"/>
      <path class="cls-2" d="M283.64,118.33l1.2,3.69a.49.49,0,0,0,.46.34h3.88a.48.48,0,0,1,.29.87l-3.14,2.28a.49.49,0,0,0-.18.54l1.2,3.69a.48.48,0,0,1-.74.54L283.47,128a.5.5,0,0,0-.57,0l-3.14,2.29a.48.48,0,0,1-.74-.54l1.2-3.69a.47.47,0,0,0-.17-.54l-3.14-2.28a.48.48,0,0,1,.28-.87h3.88a.48.48,0,0,0,.46-.34l1.2-3.69A.48.48,0,0,1,283.64,118.33Z"/>
      <path class="cls-2" d="M145,183.31l1.2,3.69a.48.48,0,0,0,.46.33h3.88a.48.48,0,0,1,.29.87l-3.14,2.28a.49.49,0,0,0-.18.54l1.2,3.69a.48.48,0,0,1-.74.54L144.87,193a.5.5,0,0,0-.57,0l-3.14,2.28a.48.48,0,0,1-.74-.54l1.2-3.69a.47.47,0,0,0-.17-.54l-3.14-2.28a.48.48,0,0,1,.28-.87h3.88a.48.48,0,0,0,.46-.33l1.2-3.69A.48.48,0,0,1,145,183.31Z"/>
      <path class="cls-2" d="M184,.33,185.24,4a.49.49,0,0,0,.46.34h3.88a.48.48,0,0,1,.29.87l-3.14,2.28a.49.49,0,0,0-.18.54l1.2,3.69a.48.48,0,0,1-.74.54L183.87,10a.5.5,0,0,0-.57,0l-3.14,2.29a.48.48,0,0,1-.74-.54l1.2-3.69a.47.47,0,0,0-.17-.54l-3.14-2.28a.48.48,0,0,1,.28-.87h3.88a.49.49,0,0,0,.46-.34l1.2-3.69A.48.48,0,0,1,184,.33Z"/>
      <path class="cls-2" d="M206.65,127l3.26,2.11a.48.48,0,0,0,.56,0l3-2.45a.48.48,0,0,1,.76.5l-1,3.75a.47.47,0,0,0,.2.53l3.26,2.11a.48.48,0,0,1-.24.88l-3.87.21a.48.48,0,0,0-.44.36l-1,3.75a.48.48,0,0,1-.91.05l-1.4-3.62a.49.49,0,0,0-.48-.31l-3.87.21a.48.48,0,0,1-.33-.85l3-2.45a.5.5,0,0,0,.15-.55l-1.4-3.62A.48.48,0,0,1,206.65,127Z"/>
      <path class="cls-2" d="M2.65,83l3.26,2.11a.48.48,0,0,0,.56,0l3-2.45a.48.48,0,0,1,.76.5l-1,3.75a.47.47,0,0,0,.2.53l3.26,2.11a.48.48,0,0,1-.24.88l-3.87.21a.48.48,0,0,0-.44.36l-1,3.75a.48.48,0,0,1-.91,0L4.86,91.1a.49.49,0,0,0-.48-.31L.51,91a.48.48,0,0,1-.33-.85l3-2.45a.5.5,0,0,0,.15-.55l-1.4-3.62A.48.48,0,0,1,2.65,83Z"/>
      <path class="cls-2" d="M140.63,70.19l3.26,2.11a.5.5,0,0,0,.57,0l3-2.45a.48.48,0,0,1,.77.5l-1,3.75a.5.5,0,0,0,.2.53l3.26,2.11a.48.48,0,0,1-.23.88l-3.88.21a.48.48,0,0,0-.44.36l-1,3.75a.48.48,0,0,1-.91,0l-1.4-3.62a.47.47,0,0,0-.47-.31l-3.88.21a.49.49,0,0,1-.33-.86l3-2.44a.48.48,0,0,0,.14-.55l-1.4-3.62A.48.48,0,0,1,140.63,70.19Z"/>
      <path class="cls-2" d="M90.63,240.19l3.26,2.11a.5.5,0,0,0,.57,0l3-2.45a.48.48,0,0,1,.77.5l-1,3.75a.5.5,0,0,0,.2.53l3.26,2.11a.48.48,0,0,1-.23.88l-3.88.21a.48.48,0,0,0-.44.36l-1,3.75a.48.48,0,0,1-.91.05l-1.4-3.62a.47.47,0,0,0-.47-.31l-3.88.21a.49.49,0,0,1-.33-.86l3-2.44a.48.48,0,0,0,.14-.55l-1.4-3.62A.48.48,0,0,1,90.63,240.19Z"/>
    </pattern>
  </defs>
  <g id="Capa_2" data-name="Capa 2">
    <g id="Capa_1-2" data-name="Capa 1">
      <rect class="cls-3" width="1366" height="1181"/>
    </g>
  </g>
</svg>
