<svg id="Capa_1" data-name="Capa 1" xmlns="http://www.w3.org/2000/svg" width="1366" height="919" viewBox="0 0 1366 919">
  <defs>
    <style>
      .cls-1 {
        fill: #fff;
      }
    </style>
  </defs>
  <path class="cls-1" d="M0,0V919H1366V0ZM344.72,303.62,594.61,75.74A99.75,99.75,0,0,1,729,223.15L479.14,451A99.75,99.75,0,1,1,344.72,303.62ZM334,767a99.75,99.75,0,0,1,6.5-140.92L753.27,249.72A99.75,99.75,0,1,1,887.69,397.13L475,773.5A99.75,99.75,0,0,1,334,767Zm712.31-195.9-326,297.25A99.75,99.75,0,0,1,586,720.94l326-297.24a99.75,99.75,0,1,1,134.42,147.41Z"/>
</svg>
