<svg xmlns="http://www.w3.org/2000/svg" width="119.538" height="41.783" viewBox="0 0 119.538 41.783">
  <g id="Capa_2" data-name="Capa 2" transform="translate(-136.776 447.392)">
    <g id="Capa_1" data-name="Capa 1" transform="translate(136.786 -447.392)">
      <g id="frontend" transform="translate(50.778 34.644)">
        <path id="Trazado_68" data-name="Trazado 68" d="M176.519,119.463v-.809c-.073-.02-.152-.038-.237-.056a1.89,1.89,0,0,0-.356-.029,1.5,1.5,0,0,0-.722.161,1.087,1.087,0,0,0-.459.485,1.908,1.908,0,0,0-.167.856v.564h-.768v.795h.768v4.05h.877v-4.05h.961v-.795h-.961v-.479a.69.69,0,0,1,.21-.564.716.716,0,0,1,.456-.164,1.733,1.733,0,0,1,.26.018Z" transform="translate(-173.81 -118.568)" fill="#048390"/>
        <path id="Trazado_69" data-name="Trazado 69" d="M187.724,126.374a1.943,1.943,0,0,1,1.055-.219h.243v-.8a.491.491,0,0,0-.146-.041,1.736,1.736,0,0,0-.292-.02,1.274,1.274,0,0,0-.584.14,2.142,2.142,0,0,0-.462.359c-.058.058-.108.111-.152.164l-.1.117-.123-.663h-.643v4.845h.877v-3.524A1.169,1.169,0,0,1,187.724,126.374Z" transform="translate(-182.806 -123.325)" fill="#048390"/>
        <path id="Trazado_70" data-name="Trazado 70" d="M201.268,129.164a2.983,2.983,0,0,0,0-2.659,2.27,2.27,0,0,0-.877-.877,2.814,2.814,0,0,0-2.6,0,2.224,2.224,0,0,0-.877.877,2.776,2.776,0,0,0-.307,1.338,2.735,2.735,0,0,0,.307,1.324,2.2,2.2,0,0,0,.877.877,2.861,2.861,0,0,0,2.6,0A2.235,2.235,0,0,0,201.268,129.164Zm-1.017-.114a1.645,1.645,0,0,1-2.3,0,1.94,1.94,0,0,1,0-2.443,1.636,1.636,0,0,1,2.3,0,1.753,1.753,0,0,1,.432,1.227A1.718,1.718,0,0,1,200.252,129.05Z" transform="translate(-189.946 -123.34)" fill="#048390"/>
        <path id="Trazado_71" data-name="Trazado 71" d="M218.918,126.69a2.226,2.226,0,0,1,.622-.371,1.338,1.338,0,0,1,1.306.061.935.935,0,0,1,.269.774v3.118h.877v-2.9a7.364,7.364,0,0,0-.041-.771,2.045,2.045,0,0,0-.178-.655,1.023,1.023,0,0,0-.421-.45,1.616,1.616,0,0,0-.8-.169,2.554,2.554,0,0,0-.757.114,2.785,2.785,0,0,0-.7.333,2.827,2.827,0,0,0-.4.333l-.094.088-.187-.766h-.646v4.845h.877v-3.311l.018-.02A1.809,1.809,0,0,1,218.918,126.69Z" transform="translate(-204.925 -123.35)" fill="#048390"/>
        <path id="Trazado_72" data-name="Trazado 72" d="M238.72,126.965l-.152.029a2.029,2.029,0,0,1-.318.023.584.584,0,0,1-.424-.164.643.643,0,0,1-.169-.482V123.71h1.064v-.795h-1.064V121.79h-.7l-.193,1.125H236v.795h.768v2.63a1.56,1.56,0,0,0,.362,1.14,1.335,1.335,0,0,0,.985.362,2.1,2.1,0,0,0,.359-.029c.082-.018.161-.035.234-.056Z" transform="translate(-217.829 -120.849)" fill="#048390"/>
        <path id="Trazado_73" data-name="Trazado 73" d="M253.312,129.143l-.649-.406a2.592,2.592,0,0,1-.549.584,1.552,1.552,0,0,1-.976.272,1.385,1.385,0,0,1-1.075-.427,1.6,1.6,0,0,1-.383-1.066v-.073h3.836a.572.572,0,0,0,0-.07,1.218,1.218,0,0,0,0-.143,2.843,2.843,0,0,0-.292-1.338,2.177,2.177,0,0,0-.833-.877,2.6,2.6,0,0,0-2.492,0,2.189,2.189,0,0,0-.83.877,2.843,2.843,0,0,0-.292,1.338,2.8,2.8,0,0,0,.292,1.324,2.145,2.145,0,0,0,.83.877,2.434,2.434,0,0,0,1.242.313,2.606,2.606,0,0,0,1.338-.313A2.305,2.305,0,0,0,253.312,129.143Zm-3.614-1.928a1.461,1.461,0,0,1,.374-.821,1.4,1.4,0,0,1,1.066-.43,1.286,1.286,0,0,1,1.125.535,1.932,1.932,0,0,1,.292.71l.02.091h-2.89Z" transform="translate(-226.872 -123.319)" fill="#048390"/>
        <path id="Trazado_74" data-name="Trazado 74" d="M270.3,126.69a2.241,2.241,0,0,1,.625-.371,1.332,1.332,0,0,1,1.3.061.935.935,0,0,1,.269.774v3.118h.877v-2.9a7.4,7.4,0,0,0-.041-.771,2.045,2.045,0,0,0-.178-.654,1.023,1.023,0,0,0-.421-.45,1.616,1.616,0,0,0-.8-.169,2.554,2.554,0,0,0-.757.114,2.721,2.721,0,0,0-.7.333,2.683,2.683,0,0,0-.4.333l-.094.088-.184-.766h-.649v4.845h.877v-3.311l.018-.02a1.808,1.808,0,0,1,.254-.251Z" transform="translate(-241.293 -123.35)" fill="#048390"/>
        <path id="Trazado_75" data-name="Trazado 75" d="M291.4,125.029l.167.678h.646V118.89h-.877v2.563l-.123-.123a2.108,2.108,0,0,0-.316-.26,2.083,2.083,0,0,0-1.137-.31,2.177,2.177,0,0,0-1.169.313,2.045,2.045,0,0,0-.78.877,2.969,2.969,0,0,0-.292,1.329,3,3,0,0,0,.292,1.332,2.113,2.113,0,0,0,.78.877,2.154,2.154,0,0,0,1.169.316,2.022,2.022,0,0,0,1.134-.316,1.908,1.908,0,0,0,.412-.359Zm-1.487.047a1.329,1.329,0,0,1-1.078-.5,2,2,0,0,1-.406-1.3,1.964,1.964,0,0,1,.406-1.286,1.414,1.414,0,0,1,2.153,0,2.294,2.294,0,0,1,0,2.589A1.324,1.324,0,0,1,289.912,125.076Z" transform="translate(-254.294 -118.796)" fill="#048390"/>
        <path id="Trazado_76" data-name="Trazado 76" d="M321.149,125.029l.167.678h.646V118.89h-.877v2.563l-.123-.123a2.107,2.107,0,0,0-.316-.26,2.083,2.083,0,0,0-1.137-.31,2.177,2.177,0,0,0-1.169.313,2.045,2.045,0,0,0-.78.877,2.969,2.969,0,0,0-.292,1.329,3,3,0,0,0,.292,1.332,2.112,2.112,0,0,0,.78.877,2.153,2.153,0,0,0,1.169.316,2.022,2.022,0,0,0,1.134-.316,1.908,1.908,0,0,0,.412-.359Zm-1.487.047a1.33,1.33,0,0,1-1.078-.5,2,2,0,0,1-.406-1.3,1.963,1.963,0,0,1,.406-1.286,1.414,1.414,0,0,1,2.153,0,2.294,2.294,0,0,1,0,2.589A1.324,1.324,0,0,1,319.662,125.076Z" transform="translate(-275.352 -118.796)" fill="#048390"/>
        <path id="Trazado_77" data-name="Trazado 77" d="M342,129.143l-.649-.406a2.592,2.592,0,0,1-.549.584,1.552,1.552,0,0,1-.976.272,1.385,1.385,0,0,1-1.075-.427,1.583,1.583,0,0,1-.383-1.066v-.073H342.2v-.213a2.843,2.843,0,0,0-.292-1.338,2.177,2.177,0,0,0-.833-.877,2.6,2.6,0,0,0-2.492,0,2.189,2.189,0,0,0-.83.877,2.843,2.843,0,0,0-.292,1.338,2.8,2.8,0,0,0,.292,1.324,2.145,2.145,0,0,0,.83.877,2.434,2.434,0,0,0,1.242.313,2.606,2.606,0,0,0,1.338-.313A2.305,2.305,0,0,0,342,129.143Zm-3.617-1.928a1.487,1.487,0,0,1,.377-.821,1.4,1.4,0,0,1,1.066-.43,1.286,1.286,0,0,1,1.125.535,1.931,1.931,0,0,1,.292.71l.02.091h-2.89Z" transform="translate(-289.64 -123.319)" fill="#048390"/>
        <path id="Trazado_78" data-name="Trazado 78" d="M359.457,125.64l-1.315,3.834-1.376-3.834h-.976l1.926,4.845h.871l1.829-4.845Z" transform="translate(-302.617 -123.574)" fill="#048390"/>
      </g>
      <g id="J" transform="translate(-0.01)">
        <rect id="Rectángulo_24" data-name="Rectángulo 24" width="12.69" height="7.889" rx="3.945" transform="translate(28.512 16.944)" fill="#4cb681"/>
        <path id="Trazado_79" data-name="Trazado 79" d="M62.582,0H40.811a4.821,4.821,0,0,0,0,9.642H62.582a4.821,4.821,0,0,0,0-9.642Z" transform="translate(-25.471)" fill="#b3bd75"/>
        <path id="Trazado_80" data-name="Trazado 80" d="M37.1,110H4.811a4.821,4.821,0,0,0,0,9.642H37.1a4.821,4.821,0,0,0,0-9.642Z" transform="translate(0.01 -77.859)" fill="#048390"/>
      </g>
      <g id="cante" transform="translate(49.205 11.395)">
        <path id="Trazado_81" data-name="Trazado 81" d="M374.985,41.63h5.6a1.315,1.315,0,0,0,0-2.63h-5.6a1.315,1.315,0,1,0,0,2.63Z" transform="translate(-313.699 -39)" fill="#4cb681"/>
        <path id="Trazado_82" data-name="Trazado 82" d="M177.65,63.78a3.95,3.95,0,0,1-4.126.029,3.991,3.991,0,0,1-1.426-1.557,4.83,4.83,0,0,1-.511-2.262,4.941,4.941,0,0,1,.511-2.264,3.892,3.892,0,0,1,1.388-1.554,3.676,3.676,0,0,1,2.028-.584,3.933,3.933,0,0,1,2.083.555,3.465,3.465,0,0,1,1.359,1.461l2.89-1.11a5.978,5.978,0,0,0-2.472-2.82,7.17,7.17,0,0,0-3.722-.985,7.392,7.392,0,0,0-3.74.967,6.72,6.72,0,0,0-2.554,2.568,8.117,8.117,0,0,0,0,7.553,6.694,6.694,0,0,0,2.568,2.568,7.489,7.489,0,0,0,3.775.932,6.785,6.785,0,0,0,3.737-1.058,6.367,6.367,0,0,0,2.457-2.945l-2.89-1.11a3.576,3.576,0,0,1-1.356,1.616Z" transform="translate(-168.424 -48.688)" fill="#e9e9e9"/>
        <path id="Trazado_83" data-name="Trazado 83" d="M230.164,53.559a6.662,6.662,0,0,0-3.386-.789,6.969,6.969,0,0,0-2.709.47,5.321,5.321,0,0,0-1.855,1.262,6.965,6.965,0,0,0-1.169,1.709l2.706,1.005a3.258,3.258,0,0,1,3.03-1.721,2.732,2.732,0,0,1,1.736.514,2.9,2.9,0,0,1,.944,1.461,6.793,6.793,0,0,1,.225,1.169h-3.506a6.458,6.458,0,0,0-4.067,1.14,3.938,3.938,0,0,0-1.461,3.3,3.807,3.807,0,0,0,1.376,3.138,5.994,5.994,0,0,0,3.872,1.11,4.135,4.135,0,0,0,3.641-1.625c.094-.137.184-.292.269-.43L229.9,67h2.861l.085-7.6a8.733,8.733,0,0,0-.654-3.556A4.812,4.812,0,0,0,230.164,53.559Zm-.847,9.429a3.325,3.325,0,0,1-1.207,1.242,3.465,3.465,0,0,1-1.835.47,3.135,3.135,0,0,1-1.817-.456,1.461,1.461,0,0,1-.652-1.265,1.668,1.668,0,0,1,.748-1.461,4.986,4.986,0,0,1,2.627-.5h2.583v.222a3.556,3.556,0,0,1-.447,1.75Z" transform="translate(-205.39 -48.744)" fill="#e9e9e9"/>
        <path id="Trazado_84" data-name="Trazado 84" d="M283.61,53.44a5.7,5.7,0,0,0-2.846-.666,4.888,4.888,0,0,0-2.834.818,4.786,4.786,0,0,0-1.362,1.443l-.146-1.928H273.5V66.992h3.126V59.743a4.686,4.686,0,0,1,.859-3.027,2.872,2.872,0,0,1,2.416-1.029,3.386,3.386,0,0,1,1.6.365,2.4,2.4,0,0,1,1.055,1.262,6.989,6.989,0,0,1,.374,2.571V67h3.112V59.161a9.038,9.038,0,0,0-.625-3.652A4.3,4.3,0,0,0,283.61,53.44Z" transform="translate(-242.798 -48.748)" fill="#e9e9e9"/>
        <path id="Trazado_85" data-name="Trazado 85" d="M331.073,54.67a1.978,1.978,0,0,1-.611.111,1.733,1.733,0,0,1-1.347-.5,2.1,2.1,0,0,1-.459-1.461V46.076h3.749V43.423h-3.758V39.09h-3.083v4.333H323.26v2.653h2.305v7.3a4.17,4.17,0,0,0,1.151,3.153,4.6,4.6,0,0,0,3.346,1.1,4.208,4.208,0,0,0,1.446-.263,6.588,6.588,0,0,0,1.443-.766l-1.14-2.343A2.779,2.779,0,0,1,331.073,54.67Z" transform="translate(-278.019 -39.064)" fill="#e9e9e9"/>
        <path id="Trazado_86" data-name="Trazado 86" d="M371.606,63.983a3.658,3.658,0,0,1-2.121.567,4.158,4.158,0,0,1-2.025-.5A3.8,3.8,0,0,1,366,62.622a4.064,4.064,0,0,1-.541-1.82h10.481a9.768,9.768,0,0,0-.877-4.3,6.571,6.571,0,0,0-2.364-2.764,6.119,6.119,0,0,0-3.36-.955,7.115,7.115,0,0,0-3.652.941,6.682,6.682,0,0,0-2.516,2.568,8.3,8.3,0,0,0-.012,7.553,6.627,6.627,0,0,0,2.469,2.568,6.9,6.9,0,0,0,3.6.932,8.324,8.324,0,0,0,2.82-.444,6.2,6.2,0,0,0,2.139-1.277,7.109,7.109,0,0,0,1.476-1.966l-2.747-1.169A3.992,3.992,0,0,1,371.606,63.983Zm-5.417-7.051a3.556,3.556,0,0,1,1.391-1.11,4.05,4.05,0,0,1,1.665-.374,3.591,3.591,0,0,1,1.6.374,3.252,3.252,0,0,1,1.274,1.11,3.03,3.03,0,0,1,.476,1.487h-6.937a2.858,2.858,0,0,1,.535-1.487Z" transform="translate(-305.619 -48.751)" fill="#e9e9e9"/>
      </g>
    </g>
  </g>
</svg>
